G04*
G04 #@! TF.GenerationSoftware,Altium Limited,Altium Designer,20.0.1 (14)*
G04*
G04 Layer_Color=32896*
%FSLAX44Y44*%
%MOMM*%
G71*
G01*
G75*
%ADD10C,0.2000*%
%ADD12C,0.1500*%
D10*
X1276000Y1114760D02*
X1380000D01*
X1276000D02*
Y1145240D01*
X1380000Y1114760D02*
Y1145240D01*
X1276000D02*
X1380000D01*
X1136000Y1114760D02*
X1240000D01*
X1136000D02*
Y1145240D01*
X1240000Y1114760D02*
Y1145240D01*
X1136000D02*
X1240000D01*
X996000D02*
X1100000D01*
Y1114760D02*
Y1145240D01*
X996000Y1114760D02*
Y1145240D01*
Y1114760D02*
X1100000D01*
X856000D02*
X960000D01*
X856000D02*
Y1145240D01*
X960000Y1114760D02*
Y1145240D01*
X856000D02*
X960000D01*
X716000D02*
X820000D01*
Y1114760D02*
Y1145240D01*
X716000Y1114760D02*
Y1145240D01*
Y1114760D02*
X820000D01*
X576000D02*
X680000D01*
X576000D02*
Y1145240D01*
X680000Y1114760D02*
Y1145240D01*
X576000D02*
X680000D01*
X436000D02*
X540000D01*
Y1114760D02*
Y1145240D01*
X436000Y1114760D02*
Y1145240D01*
Y1114760D02*
X540000D01*
X297510D02*
X401510D01*
X297510D02*
Y1145240D01*
X401510Y1114760D02*
Y1145240D01*
X297510D02*
X401510D01*
X156000D02*
X260000D01*
Y1114760D02*
Y1145240D01*
X156000Y1114760D02*
Y1145240D01*
Y1114760D02*
X260000D01*
X16000D02*
X120000D01*
X16000D02*
Y1145240D01*
X120000Y1114760D02*
Y1145240D01*
X16000D02*
X120000D01*
X16000Y590240D02*
X120000D01*
Y559760D02*
Y590240D01*
X16000Y559760D02*
Y590240D01*
Y559760D02*
X120000D01*
X156000D02*
X260000D01*
X156000D02*
Y590240D01*
X260000Y559760D02*
Y590240D01*
X156000D02*
X260000D01*
X296000D02*
X400000D01*
Y559760D02*
Y590240D01*
X296000Y559760D02*
Y590240D01*
Y559760D02*
X400000D01*
X436000D02*
X540000D01*
X436000D02*
Y590240D01*
X540000Y559760D02*
Y590240D01*
X436000D02*
X540000D01*
X856000D02*
X960000D01*
Y559760D02*
Y590240D01*
X856000Y559760D02*
Y590240D01*
Y559760D02*
X960000D01*
X996000D02*
X1100000D01*
X996000D02*
Y590240D01*
X1100000Y559760D02*
Y590240D01*
X996000D02*
X1100000D01*
X576000D02*
X680000D01*
Y559760D02*
Y590240D01*
X576000Y559760D02*
Y590240D01*
Y559760D02*
X680000D01*
X716000D02*
X820000D01*
X716000D02*
Y590240D01*
X820000Y559760D02*
Y590240D01*
X716000D02*
X820000D01*
X1136000D02*
X1240000D01*
Y559760D02*
Y590240D01*
X1136000Y559760D02*
Y590240D01*
Y559760D02*
X1240000D01*
X1276000D02*
X1380000D01*
X1276000D02*
Y590240D01*
X1380000Y559760D02*
Y590240D01*
X1276000D02*
X1380000D01*
X1348998Y1153000D02*
Y1159665D01*
X1352331Y1156332D02*
X1345666D01*
X1304998Y1153000D02*
Y1159665D01*
X1208998Y1153000D02*
Y1159665D01*
X1212331Y1156332D02*
X1205666D01*
X1164998Y1153000D02*
Y1159665D01*
X1024998Y1153000D02*
Y1159665D01*
X1068998Y1153000D02*
Y1159665D01*
X1072331Y1156332D02*
X1065666D01*
X928998Y1153000D02*
Y1159665D01*
X932331Y1156332D02*
X925666D01*
X884998Y1153000D02*
Y1159665D01*
X744998Y1153000D02*
Y1159665D01*
X788998Y1153000D02*
Y1159665D01*
X792331Y1156332D02*
X785666D01*
X648998Y1153000D02*
Y1159665D01*
X652331Y1156332D02*
X645666D01*
X604998Y1153000D02*
Y1159665D01*
X464998Y1153000D02*
Y1159665D01*
X508998Y1153000D02*
Y1159665D01*
X512331Y1156332D02*
X505666D01*
X370508Y1153000D02*
Y1159665D01*
X373841Y1156332D02*
X367176D01*
X326508Y1153000D02*
Y1159665D01*
X184998Y1153000D02*
Y1159665D01*
X228998Y1153000D02*
Y1159665D01*
X232331Y1156332D02*
X225666D01*
X88998Y1153000D02*
Y1159665D01*
X92331Y1156332D02*
X85666D01*
X44998Y1153000D02*
Y1159665D01*
X44998Y598000D02*
Y604664D01*
X88998Y598000D02*
Y604664D01*
X92331Y601332D02*
X85666D01*
X228998Y598000D02*
Y604664D01*
X232331Y601332D02*
X225666D01*
X184998Y598000D02*
Y604664D01*
X324998Y598000D02*
Y604664D01*
X368998Y598000D02*
Y604664D01*
X372331Y601332D02*
X365666D01*
X508998Y598000D02*
Y604664D01*
X512331Y601332D02*
X505666D01*
X464998Y598000D02*
Y604664D01*
X884998Y598000D02*
Y604664D01*
X928998Y598000D02*
Y604664D01*
X932331Y601332D02*
X925666D01*
X1068998Y598000D02*
Y604664D01*
X1072331Y601332D02*
X1065666D01*
X1024998Y598000D02*
Y604664D01*
X604998Y598000D02*
Y604664D01*
X648998Y598000D02*
Y604664D01*
X652331Y601332D02*
X645666D01*
X788998Y598000D02*
Y604664D01*
X792331Y601332D02*
X785666D01*
X744998Y598000D02*
Y604664D01*
X1164998Y598000D02*
Y604664D01*
X1208998Y598000D02*
Y604664D01*
X1212331Y601332D02*
X1205666D01*
X1348998Y598000D02*
Y604664D01*
X1352331Y601332D02*
X1345666D01*
X1304998Y598000D02*
Y604664D01*
D12*
X1372805Y623149D02*
X1376138D01*
X1374472D01*
Y614818D01*
X1376138Y613152D01*
X1377804D01*
X1379470Y614818D01*
X1369473Y613152D02*
Y623149D01*
X1364475D01*
X1362809Y621483D01*
Y618150D01*
X1364475Y616484D01*
X1369473D01*
X1359476Y613152D02*
X1356144D01*
X1357810D01*
Y623149D01*
X1359476Y621483D01*
X1351146Y613152D02*
X1347814D01*
X1349480D01*
Y623149D01*
X1351146Y621483D01*
X1232851Y623149D02*
X1236184D01*
X1234518D01*
Y614818D01*
X1236184Y613152D01*
X1237850D01*
X1239516Y614818D01*
X1229519Y613152D02*
Y623149D01*
X1224521D01*
X1222855Y621483D01*
Y618150D01*
X1224521Y616484D01*
X1229519D01*
X1219522Y613152D02*
X1216190D01*
X1217856D01*
Y623149D01*
X1219522Y621483D01*
X1204527Y613152D02*
X1211192D01*
X1204527Y619817D01*
Y621483D01*
X1206193Y623149D01*
X1209526D01*
X1211192Y621483D01*
X812897Y623149D02*
X816230D01*
X814564D01*
Y614818D01*
X816230Y613152D01*
X817896D01*
X819562Y614818D01*
X809565Y613152D02*
Y623149D01*
X804567D01*
X802901Y621483D01*
Y618150D01*
X804567Y616484D01*
X809565D01*
X799568Y613152D02*
X796236D01*
X797902D01*
Y623149D01*
X799568Y621483D01*
X784573Y623149D02*
X791238D01*
Y618150D01*
X787906Y619817D01*
X786239D01*
X784573Y618150D01*
Y614818D01*
X786239Y613152D01*
X789572D01*
X791238Y614818D01*
X672943Y623149D02*
X676276D01*
X674610D01*
Y614818D01*
X676276Y613152D01*
X677942D01*
X679608Y614818D01*
X669611Y613152D02*
Y623149D01*
X664613D01*
X662947Y621483D01*
Y618150D01*
X664613Y616484D01*
X669611D01*
X659614Y613152D02*
X656282D01*
X657948D01*
Y623149D01*
X659614Y621483D01*
X644619Y623149D02*
X647952Y621483D01*
X651284Y618150D01*
Y614818D01*
X649618Y613152D01*
X646285D01*
X644619Y614818D01*
Y616484D01*
X646285Y618150D01*
X651284D01*
X1092736Y623149D02*
X1096068D01*
X1094402D01*
Y614818D01*
X1096068Y613152D01*
X1097734D01*
X1099400Y614818D01*
X1089403Y613152D02*
Y623149D01*
X1084405D01*
X1082739Y621483D01*
Y618150D01*
X1084405Y616484D01*
X1089403D01*
X1079406Y613152D02*
X1076074D01*
X1077740D01*
Y623149D01*
X1079406Y621483D01*
X1071076D02*
X1069410Y623149D01*
X1066077D01*
X1064411Y621483D01*
Y619817D01*
X1066077Y618150D01*
X1067744D01*
X1066077D01*
X1064411Y616484D01*
Y614818D01*
X1066077Y613152D01*
X1069410D01*
X1071076Y614818D01*
X952782Y623149D02*
X956114D01*
X954448D01*
Y614818D01*
X956114Y613152D01*
X957780D01*
X959446Y614818D01*
X949449Y613152D02*
Y623149D01*
X944451D01*
X942785Y621483D01*
Y618150D01*
X944451Y616484D01*
X949449D01*
X939452Y613152D02*
X936120D01*
X937786D01*
Y623149D01*
X939452Y621483D01*
X926123Y613152D02*
Y623149D01*
X931122Y618150D01*
X924457D01*
X532827Y623149D02*
X536160D01*
X534494D01*
Y614818D01*
X536160Y613152D01*
X537826D01*
X539492Y614818D01*
X529495Y613152D02*
Y623149D01*
X524497D01*
X522831Y621483D01*
Y618150D01*
X524497Y616484D01*
X529495D01*
X519498Y613152D02*
X516166D01*
X517832D01*
Y623149D01*
X519498Y621483D01*
X511168Y623149D02*
X504503D01*
Y621483D01*
X511168Y614818D01*
Y613152D01*
X392873Y623149D02*
X396206D01*
X394540D01*
Y614818D01*
X396206Y613152D01*
X397872D01*
X399538Y614818D01*
X389541Y613152D02*
Y623149D01*
X384543D01*
X382877Y621483D01*
Y618150D01*
X384543Y616484D01*
X389541D01*
X379544Y613152D02*
X376212D01*
X377878D01*
Y623149D01*
X379544Y621483D01*
X371214D02*
X369548Y623149D01*
X366215D01*
X364549Y621483D01*
Y619817D01*
X366215Y618150D01*
X364549Y616484D01*
Y614818D01*
X366215Y613152D01*
X369548D01*
X371214Y614818D01*
Y616484D01*
X369548Y618150D01*
X371214Y619817D01*
Y621483D01*
X369548Y618150D02*
X366215D01*
X252920Y623149D02*
X256252D01*
X254586D01*
Y614818D01*
X256252Y613152D01*
X257918D01*
X259584Y614818D01*
X249587Y613152D02*
Y623149D01*
X244589D01*
X242923Y621483D01*
Y618150D01*
X244589Y616484D01*
X249587D01*
X239590Y613152D02*
X236258D01*
X237924D01*
Y623149D01*
X239590Y621483D01*
X231260Y614818D02*
X229594Y613152D01*
X226261D01*
X224595Y614818D01*
Y621483D01*
X226261Y623149D01*
X229594D01*
X231260Y621483D01*
Y619817D01*
X229594Y618150D01*
X224595D01*
X112711Y623149D02*
X116044D01*
X114378D01*
Y614818D01*
X116044Y613152D01*
X117710D01*
X119376Y614818D01*
X109379Y613152D02*
Y623149D01*
X104381D01*
X102715Y621483D01*
Y618150D01*
X104381Y616484D01*
X109379D01*
X92718Y613152D02*
X99382D01*
X92718Y619817D01*
Y621483D01*
X94384Y623149D01*
X97716D01*
X99382Y621483D01*
X89386D02*
X87719Y623149D01*
X84387D01*
X82721Y621483D01*
Y614818D01*
X84387Y613152D01*
X87719D01*
X89386Y614818D01*
Y621483D01*
X112711Y1178139D02*
X116044D01*
X114378D01*
Y1169808D01*
X116044Y1168142D01*
X117710D01*
X119376Y1169808D01*
X109379Y1168142D02*
Y1178139D01*
X104381D01*
X102715Y1176473D01*
Y1173140D01*
X104381Y1171474D01*
X109379D01*
X99382Y1168142D02*
X96050D01*
X97716D01*
Y1178139D01*
X99382Y1176473D01*
X91052D02*
X89386Y1178139D01*
X86053D01*
X84387Y1176473D01*
Y1169808D01*
X86053Y1168142D01*
X89386D01*
X91052Y1169808D01*
Y1176473D01*
X252920Y1178139D02*
X256252D01*
X254586D01*
Y1169808D01*
X256252Y1168142D01*
X257918D01*
X259584Y1169808D01*
X249587Y1168142D02*
Y1178139D01*
X244589D01*
X242923Y1176473D01*
Y1173140D01*
X244589Y1171474D01*
X249587D01*
X239590Y1169808D02*
X237924Y1168142D01*
X234592D01*
X232926Y1169808D01*
Y1176473D01*
X234592Y1178139D01*
X237924D01*
X239590Y1176473D01*
Y1174807D01*
X237924Y1173140D01*
X232926D01*
X394398Y1178139D02*
X397730D01*
X396064D01*
Y1169808D01*
X397730Y1168142D01*
X399396D01*
X401062Y1169808D01*
X391065Y1168142D02*
Y1178139D01*
X386067D01*
X384401Y1176473D01*
Y1173140D01*
X386067Y1171474D01*
X391065D01*
X381068Y1176473D02*
X379402Y1178139D01*
X376070D01*
X374404Y1176473D01*
Y1174807D01*
X376070Y1173140D01*
X374404Y1171474D01*
Y1169808D01*
X376070Y1168142D01*
X379402D01*
X381068Y1169808D01*
Y1171474D01*
X379402Y1173140D01*
X381068Y1174807D01*
Y1176473D01*
X379402Y1173140D02*
X376070D01*
X532827Y1178139D02*
X536160D01*
X534494D01*
Y1169808D01*
X536160Y1168142D01*
X537826D01*
X539492Y1169808D01*
X529495Y1168142D02*
Y1178139D01*
X524497D01*
X522831Y1176473D01*
Y1173140D01*
X524497Y1171474D01*
X529495D01*
X519498Y1178139D02*
X512834D01*
Y1176473D01*
X519498Y1169808D01*
Y1168142D01*
X672782Y1178139D02*
X676114D01*
X674448D01*
Y1169808D01*
X676114Y1168142D01*
X677780D01*
X679446Y1169808D01*
X669449Y1168142D02*
Y1178139D01*
X664451D01*
X662785Y1176473D01*
Y1173140D01*
X664451Y1171474D01*
X669449D01*
X652788Y1178139D02*
X656120Y1176473D01*
X659453Y1173140D01*
Y1169808D01*
X657786Y1168142D01*
X654454D01*
X652788Y1169808D01*
Y1171474D01*
X654454Y1173140D01*
X659453D01*
X812736Y1178139D02*
X816068D01*
X814402D01*
Y1169808D01*
X816068Y1168142D01*
X817734D01*
X819400Y1169808D01*
X809403Y1168142D02*
Y1178139D01*
X804405D01*
X802739Y1176473D01*
Y1173140D01*
X804405Y1171474D01*
X809403D01*
X792742Y1178139D02*
X799407D01*
Y1173140D01*
X796074Y1174807D01*
X794408D01*
X792742Y1173140D01*
Y1169808D01*
X794408Y1168142D01*
X797740D01*
X799407Y1169808D01*
X952943Y1178139D02*
X956276D01*
X954610D01*
Y1169808D01*
X956276Y1168142D01*
X957942D01*
X959608Y1169808D01*
X949611Y1168142D02*
Y1178139D01*
X944613D01*
X942947Y1176473D01*
Y1173140D01*
X944613Y1171474D01*
X949611D01*
X934616Y1168142D02*
Y1178139D01*
X939614Y1173140D01*
X932950D01*
X1092897Y1178139D02*
X1096230D01*
X1094564D01*
Y1169808D01*
X1096230Y1168142D01*
X1097896D01*
X1099562Y1169808D01*
X1089565Y1168142D02*
Y1178139D01*
X1084567D01*
X1082901Y1176473D01*
Y1173140D01*
X1084567Y1171474D01*
X1089565D01*
X1079568Y1176473D02*
X1077902Y1178139D01*
X1074570D01*
X1072904Y1176473D01*
Y1174807D01*
X1074570Y1173140D01*
X1076236D01*
X1074570D01*
X1072904Y1171474D01*
Y1169808D01*
X1074570Y1168142D01*
X1077902D01*
X1079568Y1169808D01*
X1232851Y1178139D02*
X1236184D01*
X1234518D01*
Y1169808D01*
X1236184Y1168142D01*
X1237850D01*
X1239516Y1169808D01*
X1229519Y1168142D02*
Y1178139D01*
X1224521D01*
X1222855Y1176473D01*
Y1173140D01*
X1224521Y1171474D01*
X1229519D01*
X1212858Y1168142D02*
X1219522D01*
X1212858Y1174807D01*
Y1176473D01*
X1214524Y1178139D01*
X1217856D01*
X1219522Y1176473D01*
X1372805Y1178139D02*
X1376138D01*
X1374472D01*
Y1169808D01*
X1376138Y1168142D01*
X1377804D01*
X1379470Y1169808D01*
X1369473Y1168142D02*
Y1178139D01*
X1364475D01*
X1362809Y1176473D01*
Y1173140D01*
X1364475Y1171474D01*
X1369473D01*
X1359476Y1168142D02*
X1356144D01*
X1357810D01*
Y1178139D01*
X1359476Y1176473D01*
M02*
