G04*
G04 #@! TF.GenerationSoftware,Altium Limited,Altium Designer,20.0.1 (14)*
G04*
G04 Layer_Color=16711935*
%FSLAX44Y44*%
%MOMM*%
G71*
G01*
G75*
%ADD10C,0.2000*%
D10*
X61000Y846500D02*
Y898500D01*
X4000D02*
X61000D01*
X4000Y846500D02*
X61000D01*
X4000D02*
Y898500D01*
Y766300D02*
Y818300D01*
Y766300D02*
X61000D01*
X4000Y818300D02*
X61000D01*
Y766300D02*
Y818300D01*
X1380000Y1114760D02*
Y1145240D01*
X1276000D02*
X1380000D01*
X1276000Y1114760D02*
Y1145240D01*
Y1114760D02*
X1380000D01*
X1357740Y724600D02*
Y828600D01*
X1327260D02*
X1357740D01*
X1327260Y724600D02*
Y828600D01*
Y724600D02*
X1357740D01*
X1240000Y1114760D02*
Y1145240D01*
X1136000D02*
X1240000D01*
X1136000Y1114760D02*
Y1145240D01*
Y1114760D02*
X1240000D01*
X996000D02*
X1100000D01*
X996000D02*
Y1145240D01*
X1100000D01*
Y1114760D02*
Y1145240D01*
X960000Y1114760D02*
Y1145240D01*
X856000D02*
X960000D01*
X856000Y1114760D02*
Y1145240D01*
Y1114760D02*
X960000D01*
X716000D02*
X820000D01*
X716000D02*
Y1145240D01*
X820000D01*
Y1114760D02*
Y1145240D01*
X680000Y1114760D02*
Y1145240D01*
X576000D02*
X680000D01*
X576000Y1114760D02*
Y1145240D01*
Y1114760D02*
X680000D01*
X436000D02*
X540000D01*
X436000D02*
Y1145240D01*
X540000D01*
Y1114760D02*
Y1145240D01*
X401510Y1114760D02*
Y1145240D01*
X297510D02*
X401510D01*
X297510Y1114760D02*
Y1145240D01*
Y1114760D02*
X401510D01*
X156000D02*
X260000D01*
X156000D02*
Y1145240D01*
X260000D01*
Y1114760D02*
Y1145240D01*
X120000Y1114760D02*
Y1145240D01*
X16000D02*
X120000D01*
X16000Y1114760D02*
Y1145240D01*
Y1114760D02*
X120000D01*
X16000Y559760D02*
X120000D01*
X16000D02*
Y590240D01*
X120000D01*
Y559760D02*
Y590240D01*
X260000Y559760D02*
Y590240D01*
X156000D02*
X260000D01*
X156000Y559760D02*
Y590240D01*
Y559760D02*
X260000D01*
X296000D02*
X400000D01*
X296000D02*
Y590240D01*
X400000D01*
Y559760D02*
Y590240D01*
X540000Y559760D02*
Y590240D01*
X436000D02*
X540000D01*
X436000Y559760D02*
Y590240D01*
Y559760D02*
X540000D01*
X856000D02*
X960000D01*
X856000D02*
Y590240D01*
X960000D01*
Y559760D02*
Y590240D01*
X1100000Y559760D02*
Y590240D01*
X996000D02*
X1100000D01*
X996000Y559760D02*
Y590240D01*
Y559760D02*
X1100000D01*
X576000D02*
X680000D01*
X576000D02*
Y590240D01*
X680000D01*
Y559760D02*
Y590240D01*
X820000Y559760D02*
Y590240D01*
X716000D02*
X820000D01*
X716000Y559760D02*
Y590240D01*
Y559760D02*
X820000D01*
X1136000D02*
X1240000D01*
X1136000D02*
Y590240D01*
X1240000D01*
Y559760D02*
Y590240D01*
X1380000Y559760D02*
Y590240D01*
X1276000D02*
X1380000D01*
X1276000Y559760D02*
Y590240D01*
Y559760D02*
X1380000D01*
X1380000Y1164840D02*
Y1185160D01*
X1346980D02*
X1380000D01*
X1346980Y1164840D02*
Y1185160D01*
Y1164840D02*
X1380000D01*
X1392660Y738490D02*
Y771510D01*
X1372340Y738490D02*
X1392660D01*
X1372340D02*
Y771510D01*
X1392660D01*
X1240000Y1164840D02*
Y1185160D01*
X1206980D02*
X1240000D01*
X1206980Y1164840D02*
Y1185160D01*
Y1164840D02*
X1240000D01*
X1066980D02*
X1100000D01*
X1066980D02*
Y1185160D01*
X1100000D01*
Y1164840D02*
Y1185160D01*
X960000Y1164840D02*
Y1185160D01*
X926980D02*
X960000D01*
X926980Y1164840D02*
Y1185160D01*
Y1164840D02*
X960000D01*
X1337660Y1042500D02*
Y1075520D01*
X1317340Y1042500D02*
X1337660D01*
X1317340D02*
Y1075520D01*
X1337660D01*
X1177340D02*
X1197660D01*
X1177340Y1042500D02*
Y1075520D01*
Y1042500D02*
X1197660D01*
Y1075520D01*
X1057660Y1042500D02*
Y1075520D01*
X1037340Y1042500D02*
X1057660D01*
X1037340D02*
Y1075520D01*
X1057660D01*
X897340Y1076510D02*
X917660D01*
X897340Y1043490D02*
Y1076510D01*
Y1043490D02*
X917660D01*
Y1076510D01*
X786980Y1164840D02*
X820000D01*
X786980D02*
Y1185160D01*
X820000D01*
Y1164840D02*
Y1185160D01*
X680000Y1164840D02*
Y1185160D01*
X646980D02*
X680000D01*
X646980Y1164840D02*
Y1185160D01*
Y1164840D02*
X680000D01*
X506980D02*
X540000D01*
X506980D02*
Y1185160D01*
X540000D01*
Y1164840D02*
Y1185160D01*
X401510Y1164840D02*
Y1185160D01*
X368490D02*
X401510D01*
X368490Y1164840D02*
Y1185160D01*
Y1164840D02*
X401510D01*
X777660Y1042500D02*
Y1075520D01*
X757340Y1042500D02*
X777660D01*
X757340D02*
Y1075520D01*
X777660D01*
X617340D02*
X637660D01*
X617340Y1042500D02*
Y1075520D01*
Y1042500D02*
X637660D01*
Y1075520D01*
X497660Y1042500D02*
Y1075520D01*
X477340Y1042500D02*
X497660D01*
X477340D02*
Y1075520D01*
X497660D01*
X337340D02*
X357660D01*
X337340Y1042500D02*
Y1075520D01*
Y1042500D02*
X357660D01*
Y1075520D01*
X226980Y1164840D02*
X260000D01*
X226980D02*
Y1185160D01*
X260000D01*
Y1164840D02*
Y1185160D01*
X120000Y1164840D02*
Y1185160D01*
X86980D02*
X120000D01*
X86980Y1164840D02*
Y1185160D01*
Y1164840D02*
X120000D01*
X1345990Y612340D02*
X1379010D01*
X1345990D02*
Y632660D01*
X1379010D01*
Y612340D02*
Y632660D01*
X1239010Y612340D02*
Y632660D01*
X1205990D02*
X1239010D01*
X1205990Y612340D02*
Y632660D01*
Y612340D02*
X1239010D01*
X217660Y1042500D02*
Y1075520D01*
X197340Y1042500D02*
X217660D01*
X197340D02*
Y1075520D01*
X217660D01*
X57340D02*
X77660D01*
X57340Y1042500D02*
Y1075520D01*
Y1042500D02*
X77660D01*
Y1075520D01*
X1319840Y488490D02*
Y521510D01*
X1340160D01*
Y488490D02*
Y521510D01*
X1319840Y488490D02*
X1340160D01*
X1179840D02*
X1200160D01*
Y521510D01*
X1179840D02*
X1200160D01*
X1179840Y488490D02*
Y521510D01*
X785990Y612340D02*
X819010D01*
X785990D02*
Y632660D01*
X819010D01*
Y612340D02*
Y632660D01*
X679010Y612340D02*
Y632660D01*
X645990D02*
X679010D01*
X645990Y612340D02*
Y632660D01*
Y612340D02*
X679010D01*
X1065990D02*
X1099010D01*
X1065990D02*
Y632660D01*
X1099010D01*
Y612340D02*
Y632660D01*
X959010Y612340D02*
Y632660D01*
X925990D02*
X959010D01*
X925990Y612340D02*
Y632660D01*
Y612340D02*
X959010D01*
X757340Y488490D02*
Y521510D01*
X777660D01*
Y488490D02*
Y521510D01*
X757340Y488490D02*
X777660D01*
X612340D02*
X632660D01*
Y521510D01*
X612340D02*
X632660D01*
X612340Y488490D02*
Y521510D01*
X1039840Y488490D02*
Y521510D01*
X1060160D01*
Y488490D02*
Y521510D01*
X1039840Y488490D02*
X1060160D01*
X897340D02*
X917660D01*
Y521510D01*
X897340D02*
X917660D01*
X897340Y488490D02*
Y521510D01*
X505990Y612340D02*
X539010D01*
X505990D02*
Y632660D01*
X539010D01*
Y612340D02*
Y632660D01*
X399010Y612340D02*
Y632660D01*
X365990D02*
X399010D01*
X365990Y612340D02*
Y632660D01*
Y612340D02*
X399010D01*
X225990D02*
X259010D01*
X225990D02*
Y632660D01*
X259010D01*
Y612340D02*
Y632660D01*
X119010Y612340D02*
Y632660D01*
X85990D02*
X119010D01*
X85990Y612340D02*
Y632660D01*
Y612340D02*
X119010D01*
X477340Y488490D02*
Y521510D01*
X497660D01*
Y488490D02*
Y521510D01*
X477340Y488490D02*
X497660D01*
X334840D02*
X355160D01*
Y521510D01*
X334840D02*
X355160D01*
X334840Y488490D02*
Y521510D01*
X194840Y488490D02*
Y521510D01*
X215160D01*
Y488490D02*
Y521510D01*
X194840Y488490D02*
X215160D01*
X54840Y489990D02*
X75160D01*
Y523010D01*
X54840D02*
X75160D01*
X54840Y489990D02*
Y523010D01*
M02*
