G04*
G04 #@! TF.GenerationSoftware,Altium Limited,Altium Designer,20.0.1 (14)*
G04*
G04 Layer_Physical_Order=2*
G04 Layer_Color=16711680*
%FSLAX44Y44*%
%MOMM*%
G71*
G01*
G75*
%ADD11C,0.3000*%
%ADD26C,0.5000*%
%ADD27O,2.0000X1.6000*%
%ADD28R,2.0000X1.6000*%
%ADD29O,1.6000X2.0000*%
%ADD30R,1.6000X2.0000*%
%ADD31C,0.6000*%
D11*
X490000Y907500D02*
X510000Y927500D01*
X490000Y890000D02*
Y907500D01*
X1207500Y662500D02*
X1220000D01*
X1192500Y677500D02*
Y690000D01*
Y677500D02*
X1207500Y662500D01*
X717500Y647500D02*
Y670000D01*
X687500Y650000D02*
Y665000D01*
X965000Y900000D02*
X1007500D01*
X815000Y902500D02*
X857500D01*
X810000Y907500D02*
X815000Y902500D01*
X677500Y912500D02*
X707500D01*
X322500Y870000D02*
Y920000D01*
X1170000Y662500D02*
Y663436D01*
X1165000Y668436D02*
X1170000Y663436D01*
X1165000Y668436D02*
Y690000D01*
X955000Y655000D02*
X965000Y645000D01*
X955000Y655000D02*
Y670000D01*
X905000Y655000D02*
X912500Y647500D01*
X905000Y655000D02*
Y667500D01*
D26*
X75000Y662500D02*
X100000Y637500D01*
X752500Y750000D02*
X752500D01*
X505000Y845000D02*
X510000D01*
X487500Y827500D02*
X505000Y845000D01*
X487500Y777500D02*
Y827500D01*
X487500Y752500D02*
X527500Y712500D01*
X487500Y752500D02*
X487500D01*
X620000Y777500D02*
Y830000D01*
X635000Y845000D01*
X620191Y747309D02*
X655000Y712500D01*
X620191Y747309D02*
Y752309D01*
X620000Y752500D02*
X620191Y752309D01*
X752500Y750000D02*
X790000Y712500D01*
Y712500D02*
Y712500D01*
X752500Y777500D02*
Y830000D01*
X767500Y845000D01*
X932309Y844809D02*
X932500Y845000D01*
X924809Y844809D02*
X932309D01*
X915000Y835000D02*
X924809Y844809D01*
X915000Y777500D02*
Y835000D01*
Y752500D02*
X955000Y712500D01*
X870000Y765000D02*
X1032500D01*
X727500D02*
X870000D01*
X1032500D02*
X1050000Y747500D01*
X527500Y712500D02*
X655000D01*
X367500D02*
X527500D01*
X655000D02*
X790000D01*
X955000D01*
X1050000Y637500D02*
Y747500D01*
X445000Y765000D02*
Y870000D01*
X367500Y712500D02*
Y830000D01*
X100000Y637500D02*
X217500D01*
X217500D02*
X370000D01*
X375059Y637559D02*
X375250Y637750D01*
X370059Y637559D02*
X375059D01*
X370000Y637500D02*
X370059Y637559D01*
X497375Y637625D02*
X497500Y637500D01*
X375375Y637625D02*
X497375D01*
X375250Y637750D02*
X375375Y637625D01*
X497500Y637500D02*
X640000D01*
X752500D01*
X1190000D02*
X1337500D01*
X1050000D02*
X1190000D01*
X1337500D02*
Y682500D01*
X915000Y637500D02*
X1050000D01*
X752500D02*
X915000D01*
X1337500Y682500D02*
X1382500Y727500D01*
X865000Y882500D02*
X1020000D01*
X725000D02*
X865000D01*
X437500D02*
X605000D01*
X437500Y877500D02*
Y882500D01*
Y877500D02*
X445000Y870000D01*
X605000Y882500D02*
X725000D01*
X445000Y765000D02*
X600000D01*
X727500D01*
D27*
X35000Y859800D02*
D03*
Y779600D02*
D03*
X1342500Y765000D02*
D03*
Y790400D02*
D03*
Y815800D02*
D03*
D28*
X35000Y885200D02*
D03*
Y805000D02*
D03*
X1342500Y739600D02*
D03*
D29*
X1288800Y1130000D02*
D03*
X1314200D02*
D03*
X1339600D02*
D03*
X1148800D02*
D03*
X1174200D02*
D03*
X1199600D02*
D03*
X1059600D02*
D03*
X1034200D02*
D03*
X1008800D02*
D03*
X868800D02*
D03*
X894200D02*
D03*
X919600D02*
D03*
X779600D02*
D03*
X754200D02*
D03*
X728800D02*
D03*
X588800D02*
D03*
X614200D02*
D03*
X639600D02*
D03*
X499600D02*
D03*
X474200D02*
D03*
X448800D02*
D03*
X310310D02*
D03*
X335710D02*
D03*
X361110D02*
D03*
X219600D02*
D03*
X194200D02*
D03*
X168800D02*
D03*
X28800D02*
D03*
X54200D02*
D03*
X79600D02*
D03*
X79600Y575000D02*
D03*
X54200D02*
D03*
X28800D02*
D03*
X168800D02*
D03*
X194200D02*
D03*
X219600D02*
D03*
X359600D02*
D03*
X334200D02*
D03*
X308800D02*
D03*
X448800D02*
D03*
X474200D02*
D03*
X499600D02*
D03*
X919600D02*
D03*
X894200D02*
D03*
X868800D02*
D03*
X1008800D02*
D03*
X1034200D02*
D03*
X1059600D02*
D03*
X639600D02*
D03*
X614200D02*
D03*
X588800D02*
D03*
X728800D02*
D03*
X754200D02*
D03*
X779600D02*
D03*
X1199600D02*
D03*
X1174200D02*
D03*
X1148800D02*
D03*
X1288800D02*
D03*
X1314200D02*
D03*
X1339600D02*
D03*
D30*
X1365000Y1130000D02*
D03*
X1225000D02*
D03*
X1085000D02*
D03*
X945000D02*
D03*
X805000D02*
D03*
X665000D02*
D03*
X525000D02*
D03*
X386510D02*
D03*
X245000D02*
D03*
X105000D02*
D03*
X105000Y575000D02*
D03*
X245000D02*
D03*
X385000D02*
D03*
X525000D02*
D03*
X945000D02*
D03*
X1085000D02*
D03*
X665000D02*
D03*
X805000D02*
D03*
X1225000D02*
D03*
X1365000D02*
D03*
D31*
X75000Y662500D02*
D03*
X510000Y845000D02*
D03*
X487500Y777500D02*
D03*
Y752500D02*
D03*
X635000Y845000D02*
D03*
X620000Y777500D02*
D03*
Y752500D02*
D03*
X767500Y845000D02*
D03*
X752500Y777500D02*
D03*
Y752500D02*
D03*
X932500Y845000D02*
D03*
X915000Y777500D02*
D03*
Y752500D02*
D03*
X527500Y712500D02*
D03*
X655000D02*
D03*
X790000D02*
D03*
X955000D02*
D03*
X367500D02*
D03*
Y830000D02*
D03*
X1337500Y637500D02*
D03*
X640000D02*
D03*
X1382500Y727500D02*
D03*
X1020000Y882500D02*
D03*
X865000D02*
D03*
X490000Y890000D02*
D03*
X437500Y882500D02*
D03*
X725000D02*
D03*
X605000D02*
D03*
X375250Y637750D02*
D03*
X217500Y637500D02*
D03*
X445000Y765000D02*
D03*
X600000D02*
D03*
X727500D02*
D03*
X870000D02*
D03*
X1032500D02*
D03*
X1190000Y637500D02*
D03*
X1050000D02*
D03*
X915000D02*
D03*
X752500D02*
D03*
X497500D02*
D03*
X717500Y647500D02*
D03*
X100000Y637500D02*
D03*
X965000Y900000D02*
D03*
X1007500D02*
D03*
X810000Y907500D02*
D03*
X857500Y902500D02*
D03*
X677500Y912500D02*
D03*
X707500D02*
D03*
X510000Y927500D02*
D03*
X322500Y870000D02*
D03*
Y920000D02*
D03*
X1192500Y690000D02*
D03*
X1220000Y662500D02*
D03*
X1165000Y690000D02*
D03*
X1170000Y662500D02*
D03*
X955000Y670000D02*
D03*
X965000Y645000D02*
D03*
X905000Y667500D02*
D03*
X912500Y647500D02*
D03*
X717500Y670000D02*
D03*
X687500Y665000D02*
D03*
Y650000D02*
D03*
M02*
