G04*
G04 #@! TF.GenerationSoftware,Altium Limited,Altium Designer,20.0.1 (14)*
G04*
G04 Layer_Color=8421504*
%FSLAX44Y44*%
%MOMM*%
G71*
G01*
G75*
%ADD13R,0.7000X1.3000*%
%ADD14R,1.3000X0.7000*%
%ADD15R,2.1000X1.5000*%
%ADD16R,1.5500X0.6000*%
D13*
X1353990Y1175000D02*
D03*
X1372990D02*
D03*
X1213990D02*
D03*
X1232990D02*
D03*
X1092990D02*
D03*
X1073990D02*
D03*
X933990D02*
D03*
X952990D02*
D03*
X812990D02*
D03*
X793990D02*
D03*
X653990D02*
D03*
X672990D02*
D03*
X532990D02*
D03*
X513990D02*
D03*
X375500D02*
D03*
X394500D02*
D03*
X252990D02*
D03*
X233990D02*
D03*
X93990D02*
D03*
X112990D02*
D03*
X1372000Y622500D02*
D03*
X1353000D02*
D03*
X1213000D02*
D03*
X1232000D02*
D03*
X812000D02*
D03*
X793000D02*
D03*
X653000D02*
D03*
X672000D02*
D03*
X1092000D02*
D03*
X1073000D02*
D03*
X933000D02*
D03*
X952000D02*
D03*
X532000D02*
D03*
X513000D02*
D03*
X373000D02*
D03*
X392000D02*
D03*
X252000D02*
D03*
X233000D02*
D03*
X93000D02*
D03*
X112000D02*
D03*
D14*
X1382500Y764500D02*
D03*
Y745500D02*
D03*
X1327500Y1068510D02*
D03*
Y1049510D02*
D03*
X1187500D02*
D03*
Y1068510D02*
D03*
X1047500D02*
D03*
Y1049510D02*
D03*
X907500Y1050500D02*
D03*
Y1069500D02*
D03*
X767500Y1068510D02*
D03*
Y1049510D02*
D03*
X627500D02*
D03*
Y1068510D02*
D03*
X487500D02*
D03*
Y1049510D02*
D03*
X347500D02*
D03*
Y1068510D02*
D03*
X207500D02*
D03*
Y1049510D02*
D03*
X67500D02*
D03*
Y1068510D02*
D03*
X1330000Y495500D02*
D03*
Y514500D02*
D03*
X1190000D02*
D03*
Y495500D02*
D03*
X767500D02*
D03*
Y514500D02*
D03*
X622500D02*
D03*
Y495500D02*
D03*
X1050000D02*
D03*
Y514500D02*
D03*
X907500D02*
D03*
Y495500D02*
D03*
X487500D02*
D03*
Y514500D02*
D03*
X345000D02*
D03*
Y495500D02*
D03*
X205000D02*
D03*
Y514500D02*
D03*
X65000Y516000D02*
D03*
Y497000D02*
D03*
D15*
X1289001Y1082250D02*
D03*
Y1052750D02*
D03*
X1149001D02*
D03*
Y1082250D02*
D03*
X1009001D02*
D03*
Y1052750D02*
D03*
X870000D02*
D03*
Y1082250D02*
D03*
X730000D02*
D03*
Y1052750D02*
D03*
X589250D02*
D03*
Y1082250D02*
D03*
X449001D02*
D03*
Y1052750D02*
D03*
X309001D02*
D03*
Y1082250D02*
D03*
X169001D02*
D03*
Y1052750D02*
D03*
X29001D02*
D03*
Y1082250D02*
D03*
X1290000Y504250D02*
D03*
Y533750D02*
D03*
X1152500D02*
D03*
Y504250D02*
D03*
X730000Y504240D02*
D03*
Y533740D02*
D03*
X585000D02*
D03*
Y504240D02*
D03*
X1010000Y504250D02*
D03*
Y533750D02*
D03*
X867500Y533740D02*
D03*
Y504240D02*
D03*
X447500D02*
D03*
Y533740D02*
D03*
X307500D02*
D03*
Y504240D02*
D03*
X167500D02*
D03*
Y533740D02*
D03*
X27500Y533750D02*
D03*
Y504250D02*
D03*
X1366998Y1056750D02*
D03*
Y1086250D02*
D03*
X1226999D02*
D03*
Y1056750D02*
D03*
X1086999D02*
D03*
Y1086250D02*
D03*
X946999D02*
D03*
Y1056750D02*
D03*
X806999D02*
D03*
Y1086250D02*
D03*
X666999D02*
D03*
Y1056750D02*
D03*
X526998D02*
D03*
Y1086250D02*
D03*
X386998D02*
D03*
Y1056750D02*
D03*
X246999D02*
D03*
Y1086250D02*
D03*
X106999D02*
D03*
Y1056750D02*
D03*
X1367500Y529750D02*
D03*
Y500250D02*
D03*
X1230000D02*
D03*
Y529750D02*
D03*
X807500Y529740D02*
D03*
Y500240D02*
D03*
X662500D02*
D03*
Y529740D02*
D03*
X1090000Y529750D02*
D03*
Y500250D02*
D03*
X947500D02*
D03*
Y529750D02*
D03*
X525000Y529740D02*
D03*
Y500240D02*
D03*
X385000D02*
D03*
Y529740D02*
D03*
X245000D02*
D03*
Y500240D02*
D03*
X107500D02*
D03*
Y529740D02*
D03*
D16*
X950000Y882700D02*
D03*
Y870000D02*
D03*
Y857300D02*
D03*
Y844600D02*
D03*
X1004000Y882700D02*
D03*
Y870000D02*
D03*
Y857300D02*
D03*
Y844600D02*
D03*
X845000D02*
D03*
Y857300D02*
D03*
Y870000D02*
D03*
Y882700D02*
D03*
X791000Y844600D02*
D03*
Y857300D02*
D03*
Y870000D02*
D03*
Y882700D02*
D03*
X655000D02*
D03*
Y870000D02*
D03*
Y857300D02*
D03*
Y844600D02*
D03*
X709000Y882700D02*
D03*
Y870000D02*
D03*
Y857300D02*
D03*
Y844600D02*
D03*
X581500D02*
D03*
Y857300D02*
D03*
Y870000D02*
D03*
Y882700D02*
D03*
X527500Y844600D02*
D03*
Y857300D02*
D03*
Y870000D02*
D03*
Y882700D02*
D03*
X367500D02*
D03*
Y870000D02*
D03*
Y857300D02*
D03*
Y844600D02*
D03*
X421500Y882700D02*
D03*
Y870000D02*
D03*
Y857300D02*
D03*
Y844600D02*
D03*
X1004000Y727600D02*
D03*
Y740300D02*
D03*
Y753000D02*
D03*
Y765700D02*
D03*
X950000Y727600D02*
D03*
Y740300D02*
D03*
Y753000D02*
D03*
Y765700D02*
D03*
X655000D02*
D03*
Y753000D02*
D03*
Y740300D02*
D03*
Y727600D02*
D03*
X709000Y765700D02*
D03*
Y753000D02*
D03*
Y740300D02*
D03*
Y727600D02*
D03*
X845000D02*
D03*
Y740300D02*
D03*
Y753000D02*
D03*
Y765700D02*
D03*
X791000Y727600D02*
D03*
Y740300D02*
D03*
Y753000D02*
D03*
Y765700D02*
D03*
X527500D02*
D03*
Y753000D02*
D03*
Y740300D02*
D03*
Y727600D02*
D03*
X581500Y765700D02*
D03*
Y753000D02*
D03*
Y740300D02*
D03*
Y727600D02*
D03*
X421500D02*
D03*
Y740300D02*
D03*
Y753000D02*
D03*
Y765700D02*
D03*
X367500Y727600D02*
D03*
Y740300D02*
D03*
Y753000D02*
D03*
Y765700D02*
D03*
M02*
