G04*
G04 #@! TF.GenerationSoftware,Altium Limited,Altium Designer,20.0.1 (14)*
G04*
G04 Layer_Color=12632256*
%FSLAX44Y44*%
%MOMM*%
G71*
G01*
G75*
%ADD27O,2.0000X1.6000*%
%ADD28R,2.0000X1.6000*%
%ADD29O,1.6000X2.0000*%
%ADD30R,1.6000X2.0000*%
D27*
X35000Y859800D02*
D03*
Y779600D02*
D03*
X1342500Y765000D02*
D03*
Y790400D02*
D03*
Y815800D02*
D03*
D28*
X35000Y885200D02*
D03*
Y805000D02*
D03*
X1342500Y739600D02*
D03*
D29*
X1288800Y1130000D02*
D03*
X1314200D02*
D03*
X1339600D02*
D03*
X1148800D02*
D03*
X1174200D02*
D03*
X1199600D02*
D03*
X1059600D02*
D03*
X1034200D02*
D03*
X1008800D02*
D03*
X868800D02*
D03*
X894200D02*
D03*
X919600D02*
D03*
X779600D02*
D03*
X754200D02*
D03*
X728800D02*
D03*
X588800D02*
D03*
X614200D02*
D03*
X639600D02*
D03*
X499600D02*
D03*
X474200D02*
D03*
X448800D02*
D03*
X310310D02*
D03*
X335710D02*
D03*
X361110D02*
D03*
X219600D02*
D03*
X194200D02*
D03*
X168800D02*
D03*
X28800D02*
D03*
X54200D02*
D03*
X79600D02*
D03*
X79600Y575000D02*
D03*
X54200D02*
D03*
X28800D02*
D03*
X168800D02*
D03*
X194200D02*
D03*
X219600D02*
D03*
X359600D02*
D03*
X334200D02*
D03*
X308800D02*
D03*
X448800D02*
D03*
X474200D02*
D03*
X499600D02*
D03*
X919600D02*
D03*
X894200D02*
D03*
X868800D02*
D03*
X1008800D02*
D03*
X1034200D02*
D03*
X1059600D02*
D03*
X639600D02*
D03*
X614200D02*
D03*
X588800D02*
D03*
X728800D02*
D03*
X754200D02*
D03*
X779600D02*
D03*
X1199600D02*
D03*
X1174200D02*
D03*
X1148800D02*
D03*
X1288800D02*
D03*
X1314200D02*
D03*
X1339600D02*
D03*
D30*
X1365000Y1130000D02*
D03*
X1225000D02*
D03*
X1085000D02*
D03*
X945000D02*
D03*
X805000D02*
D03*
X665000D02*
D03*
X525000D02*
D03*
X386510D02*
D03*
X245000D02*
D03*
X105000D02*
D03*
X105000Y575000D02*
D03*
X245000D02*
D03*
X385000D02*
D03*
X525000D02*
D03*
X945000D02*
D03*
X1085000D02*
D03*
X665000D02*
D03*
X805000D02*
D03*
X1225000D02*
D03*
X1365000D02*
D03*
M02*
