G04*
G04 #@! TF.GenerationSoftware,Altium Limited,Altium Designer,20.0.1 (14)*
G04*
G04 Layer_Color=16711935*
%FSLAX44Y44*%
%MOMM*%
G71*
G01*
G75*
%ADD10C,0.2000*%
%ADD11C,0.3000*%
%ADD32C,0.4000*%
%ADD33C,0.1000*%
D10*
X4000Y898500D02*
X61000D01*
Y846500D02*
Y898500D01*
X4000Y846500D02*
Y898500D01*
Y846500D02*
X61000D01*
X4000Y766300D02*
X61000D01*
X4000D02*
Y818300D01*
X61000Y766300D02*
Y818300D01*
X4000D02*
X61000D01*
X1276000Y1115000D02*
Y1145480D01*
X1380000D01*
X1276000Y1115000D02*
X1380000D01*
Y1145480D01*
X1327020Y724600D02*
X1357500D01*
Y828600D01*
X1327020Y724600D02*
Y828600D01*
X1357500D01*
X1136000Y1115000D02*
Y1145480D01*
X1240000D01*
X1136000Y1115000D02*
X1240000D01*
Y1145480D01*
X1100000Y1115000D02*
Y1145480D01*
X996000Y1115000D02*
X1100000D01*
X996000Y1145480D02*
X1100000D01*
X996000Y1115000D02*
Y1145480D01*
X856000Y1115000D02*
Y1145480D01*
X960000D01*
X856000Y1115000D02*
X960000D01*
Y1145480D01*
X820000Y1115000D02*
Y1145480D01*
X716000Y1115000D02*
X820000D01*
X716000Y1145480D02*
X820000D01*
X716000Y1115000D02*
Y1145480D01*
X576000Y1115000D02*
Y1145480D01*
X680000D01*
X576000Y1115000D02*
X680000D01*
Y1145480D01*
X540000Y1115000D02*
Y1145480D01*
X436000Y1115000D02*
X540000D01*
X436000Y1145480D02*
X540000D01*
X436000Y1115000D02*
Y1145480D01*
X297510Y1115000D02*
Y1145480D01*
X401510D01*
X297510Y1115000D02*
X401510D01*
Y1145480D01*
X260000Y1115000D02*
Y1145480D01*
X156000Y1115000D02*
X260000D01*
X156000Y1145480D02*
X260000D01*
X156000Y1115000D02*
Y1145480D01*
X16000Y1115000D02*
Y1145480D01*
X120000D01*
X16000Y1115000D02*
X120000D01*
Y1145480D01*
X120000Y560000D02*
Y590480D01*
X16000Y560000D02*
X120000D01*
X16000Y590480D02*
X120000D01*
X16000Y560000D02*
Y590480D01*
X156000Y560000D02*
Y590480D01*
X260000D01*
X156000Y560000D02*
X260000D01*
Y590480D01*
X400000Y560000D02*
Y590480D01*
X296000Y560000D02*
X400000D01*
X296000Y590480D02*
X400000D01*
X296000Y560000D02*
Y590480D01*
X436000Y560000D02*
Y590480D01*
X540000D01*
X436000Y560000D02*
X540000D01*
Y590480D01*
X960000Y560000D02*
Y590480D01*
X856000Y560000D02*
X960000D01*
X856000Y590480D02*
X960000D01*
X856000Y560000D02*
Y590480D01*
X996000Y560000D02*
Y590480D01*
X1100000D01*
X996000Y560000D02*
X1100000D01*
Y590480D01*
X680000Y560000D02*
Y590480D01*
X576000Y560000D02*
X680000D01*
X576000Y590480D02*
X680000D01*
X576000Y560000D02*
Y590480D01*
X716000Y560000D02*
Y590480D01*
X820000D01*
X716000Y560000D02*
X820000D01*
Y590480D01*
X1240000Y560000D02*
Y590480D01*
X1136000Y560000D02*
X1240000D01*
X1136000Y590480D02*
X1240000D01*
X1136000Y560000D02*
Y590480D01*
X1276000Y560000D02*
Y590480D01*
X1380000D01*
X1276000Y560000D02*
X1380000D01*
Y590480D01*
X1346990Y1164750D02*
X1380010D01*
X1346990D02*
Y1185070D01*
X1380010D01*
Y1164750D02*
Y1185070D01*
X1372430Y771520D02*
X1392750D01*
X1372430Y738500D02*
Y771520D01*
Y738500D02*
X1392750D01*
Y771520D01*
X1206990Y1164750D02*
X1240010D01*
X1206990D02*
Y1185070D01*
X1240010D01*
Y1164750D02*
Y1185070D01*
X1100010Y1164750D02*
Y1185070D01*
X1066990D02*
X1100010D01*
X1066990Y1164750D02*
Y1185070D01*
Y1164750D02*
X1100010D01*
X926990D02*
X960010D01*
X926990D02*
Y1185070D01*
X960010D01*
Y1164750D02*
Y1185070D01*
X1317430Y1075530D02*
X1337750D01*
X1317430Y1042510D02*
Y1075530D01*
Y1042510D02*
X1337750D01*
Y1075530D01*
X1197750Y1042510D02*
Y1075530D01*
X1177430Y1042510D02*
X1197750D01*
X1177430D02*
Y1075530D01*
X1197750D01*
X1037430D02*
X1057750D01*
X1037430Y1042510D02*
Y1075530D01*
Y1042510D02*
X1057750D01*
Y1075530D01*
X917750Y1043500D02*
Y1076520D01*
X897430Y1043500D02*
X917750D01*
X897430D02*
Y1076520D01*
X917750D01*
X820010Y1164750D02*
Y1185070D01*
X786990D02*
X820010D01*
X786990Y1164750D02*
Y1185070D01*
Y1164750D02*
X820010D01*
X646990D02*
X680010D01*
X646990D02*
Y1185070D01*
X680010D01*
Y1164750D02*
Y1185070D01*
X540010Y1164750D02*
Y1185070D01*
X506990D02*
X540010D01*
X506990Y1164750D02*
Y1185070D01*
Y1164750D02*
X540010D01*
X368500D02*
X401520D01*
X368500D02*
Y1185070D01*
X401520D01*
Y1164750D02*
Y1185070D01*
X757430Y1075530D02*
X777750D01*
X757430Y1042510D02*
Y1075530D01*
Y1042510D02*
X777750D01*
Y1075530D01*
X637750Y1042510D02*
Y1075530D01*
X617430Y1042510D02*
X637750D01*
X617430D02*
Y1075530D01*
X637750D01*
X477430D02*
X497750D01*
X477430Y1042510D02*
Y1075530D01*
Y1042510D02*
X497750D01*
Y1075530D01*
X357750Y1042510D02*
Y1075530D01*
X337430Y1042510D02*
X357750D01*
X337430D02*
Y1075530D01*
X357750D01*
X260010Y1164750D02*
Y1185070D01*
X226990D02*
X260010D01*
X226990Y1164750D02*
Y1185070D01*
Y1164750D02*
X260010D01*
X86990D02*
X120010D01*
X86990D02*
Y1185070D01*
X120010D01*
Y1164750D02*
Y1185070D01*
X1379020Y612250D02*
Y632570D01*
X1346000D02*
X1379020D01*
X1346000Y612250D02*
Y632570D01*
Y612250D02*
X1379020D01*
X1206000D02*
X1239020D01*
X1206000D02*
Y632570D01*
X1239020D01*
Y612250D02*
Y632570D01*
X197430Y1075530D02*
X217750D01*
X197430Y1042510D02*
Y1075530D01*
Y1042510D02*
X217750D01*
Y1075530D01*
X77750Y1042510D02*
Y1075530D01*
X57430Y1042510D02*
X77750D01*
X57430D02*
Y1075530D01*
X77750D01*
X1319750Y488480D02*
X1340070D01*
Y521500D01*
X1319750D02*
X1340070D01*
X1319750Y488480D02*
Y521500D01*
X1179750Y488480D02*
Y521500D01*
X1200070D01*
Y488480D02*
Y521500D01*
X1179750Y488480D02*
X1200070D01*
X819020Y612250D02*
Y632570D01*
X786000D02*
X819020D01*
X786000Y612250D02*
Y632570D01*
Y612250D02*
X819020D01*
X646000D02*
X679020D01*
X646000D02*
Y632570D01*
X679020D01*
Y612250D02*
Y632570D01*
X1099020Y612250D02*
Y632570D01*
X1066000D02*
X1099020D01*
X1066000Y612250D02*
Y632570D01*
Y612250D02*
X1099020D01*
X926000D02*
X959020D01*
X926000D02*
Y632570D01*
X959020D01*
Y612250D02*
Y632570D01*
X757250Y488480D02*
X777570D01*
Y521500D01*
X757250D02*
X777570D01*
X757250Y488480D02*
Y521500D01*
X612250Y488480D02*
Y521500D01*
X632570D01*
Y488480D02*
Y521500D01*
X612250Y488480D02*
X632570D01*
X1039750D02*
X1060070D01*
Y521500D01*
X1039750D02*
X1060070D01*
X1039750Y488480D02*
Y521500D01*
X897250Y488480D02*
Y521500D01*
X917570D01*
Y488480D02*
Y521500D01*
X897250Y488480D02*
X917570D01*
X539020Y612250D02*
Y632570D01*
X506000D02*
X539020D01*
X506000Y612250D02*
Y632570D01*
Y612250D02*
X539020D01*
X366000D02*
X399020D01*
X366000D02*
Y632570D01*
X399020D01*
Y612250D02*
Y632570D01*
X259020Y612250D02*
Y632570D01*
X226000D02*
X259020D01*
X226000Y612250D02*
Y632570D01*
Y612250D02*
X259020D01*
X86000D02*
X119020D01*
X86000D02*
Y632570D01*
X119020D01*
Y612250D02*
Y632570D01*
X477250Y488480D02*
X497570D01*
Y521500D01*
X477250D02*
X497570D01*
X477250Y488480D02*
Y521500D01*
X334750Y488480D02*
Y521500D01*
X355070D01*
Y488480D02*
Y521500D01*
X334750Y488480D02*
X355070D01*
X194750D02*
X215070D01*
Y521500D01*
X194750D02*
X215070D01*
X194750Y488480D02*
Y521500D01*
X54750Y489980D02*
Y523000D01*
X75070D01*
Y489980D02*
Y523000D01*
X54750Y489980D02*
X75070D01*
X1276001Y1042500D02*
Y1092500D01*
Y1093500D02*
X1302001D01*
X1276001Y1090500D02*
Y1096500D01*
X1302001D01*
Y1042500D02*
Y1092500D01*
Y1096500D01*
X1276001Y1042500D02*
X1302001D01*
X1276001Y1096500D02*
X1302001D01*
X1136001D02*
X1162001D01*
X1136001Y1042500D02*
X1162001D01*
Y1092500D02*
Y1096500D01*
Y1042500D02*
Y1092500D01*
X1136001Y1096500D02*
X1162001D01*
X1136001Y1090500D02*
Y1096500D01*
Y1093500D02*
X1162001D01*
X1136001Y1042500D02*
Y1092500D01*
X996001Y1042500D02*
Y1092500D01*
Y1093500D02*
X1022001D01*
X996001Y1090500D02*
Y1096500D01*
X1022001D01*
Y1042500D02*
Y1092500D01*
Y1096500D01*
X996001Y1042500D02*
X1022001D01*
X996001Y1096500D02*
X1022001D01*
X857000D02*
X883000D01*
X857000Y1042500D02*
X883000D01*
Y1092500D02*
Y1096500D01*
Y1042500D02*
Y1092500D01*
X857000Y1096500D02*
X883000D01*
X857000Y1090500D02*
Y1096500D01*
Y1093500D02*
X883000D01*
X857000Y1042500D02*
Y1092500D01*
X717000Y1042500D02*
Y1092500D01*
Y1093500D02*
X743000D01*
X717000Y1090500D02*
Y1096500D01*
X743000D01*
Y1042500D02*
Y1092500D01*
Y1096500D01*
X717000Y1042500D02*
X743000D01*
X717000Y1096500D02*
X743000D01*
X576250D02*
X602250D01*
X576250Y1042500D02*
X602250D01*
Y1092500D02*
Y1096500D01*
Y1042500D02*
Y1092500D01*
X576250Y1096500D02*
X602250D01*
X576250Y1090500D02*
Y1096500D01*
Y1093500D02*
X602250D01*
X576250Y1042500D02*
Y1092500D01*
X436001Y1042500D02*
Y1092500D01*
Y1093500D02*
X462001D01*
X436001Y1090500D02*
Y1096500D01*
X462001D01*
Y1042500D02*
Y1092500D01*
Y1096500D01*
X436001Y1042500D02*
X462001D01*
X436001Y1096500D02*
X462001D01*
X296001D02*
X322001D01*
X296001Y1042500D02*
X322001D01*
Y1092500D02*
Y1096500D01*
Y1042500D02*
Y1092500D01*
X296001Y1096500D02*
X322001D01*
X296001Y1090500D02*
Y1096500D01*
Y1093500D02*
X322001D01*
X296001Y1042500D02*
Y1092500D01*
X156001Y1042500D02*
Y1092500D01*
Y1093500D02*
X182001D01*
X156001Y1090500D02*
Y1096500D01*
X182001D01*
Y1042500D02*
Y1092500D01*
Y1096500D01*
X156001Y1042500D02*
X182001D01*
X156001Y1096500D02*
X182001D01*
X16001D02*
X42001D01*
X16001Y1042500D02*
X42001D01*
Y1092500D02*
Y1096500D01*
Y1042500D02*
Y1092500D01*
X16001Y1096500D02*
X42001D01*
X16001Y1090500D02*
Y1096500D01*
Y1093500D02*
X42001D01*
X16001Y1042500D02*
Y1092500D01*
X1303000Y494000D02*
Y544000D01*
X1277000Y493000D02*
X1303000D01*
Y490000D02*
Y496000D01*
X1277000Y490000D02*
X1303000D01*
X1277000Y494000D02*
Y544000D01*
Y490000D02*
Y494000D01*
Y544000D02*
X1303000D01*
X1277000Y490000D02*
X1303000D01*
X1139500D02*
X1165500D01*
X1139500Y544000D02*
X1165500D01*
X1139500Y490000D02*
Y494000D01*
Y544000D01*
Y490000D02*
X1165500D01*
Y496000D01*
X1139500Y493000D02*
X1165500D01*
Y494000D02*
Y544000D01*
X743000Y493990D02*
Y543990D01*
X717000Y492990D02*
X743000D01*
Y489990D02*
Y495990D01*
X717000Y489990D02*
X743000D01*
X717000Y493990D02*
Y543990D01*
Y489990D02*
Y493990D01*
Y543990D02*
X743000D01*
X717000Y489990D02*
X743000D01*
X572000D02*
X598000D01*
X572000Y543990D02*
X598000D01*
X572000Y489990D02*
Y493990D01*
Y543990D01*
Y489990D02*
X598000D01*
Y495990D01*
X572000Y492990D02*
X598000D01*
Y493990D02*
Y543990D01*
X1023000Y494000D02*
Y544000D01*
X997000Y493000D02*
X1023000D01*
Y490000D02*
Y496000D01*
X997000Y490000D02*
X1023000D01*
X997000Y494000D02*
Y544000D01*
Y490000D02*
Y494000D01*
Y544000D02*
X1023000D01*
X997000Y490000D02*
X1023000D01*
X854500Y489990D02*
X880500D01*
X854500Y543990D02*
X880500D01*
X854500Y489990D02*
Y493990D01*
Y543990D01*
Y489990D02*
X880500D01*
Y495990D01*
X854500Y492990D02*
X880500D01*
Y493990D02*
Y543990D01*
X460500Y493990D02*
Y543990D01*
X434500Y492990D02*
X460500D01*
Y489990D02*
Y495990D01*
X434500Y489990D02*
X460500D01*
X434500Y493990D02*
Y543990D01*
Y489990D02*
Y493990D01*
Y543990D02*
X460500D01*
X434500Y489990D02*
X460500D01*
X294500D02*
X320500D01*
X294500Y543990D02*
X320500D01*
X294500Y489990D02*
Y493990D01*
Y543990D01*
Y489990D02*
X320500D01*
Y495990D01*
X294500Y492990D02*
X320500D01*
Y493990D02*
Y543990D01*
X180500Y493990D02*
Y543990D01*
X154500Y492990D02*
X180500D01*
Y489990D02*
Y495990D01*
X154500Y489990D02*
X180500D01*
X154500Y493990D02*
Y543990D01*
Y489990D02*
Y493990D01*
Y543990D02*
X180500D01*
X154500Y489990D02*
X180500D01*
X14500Y490000D02*
X40500D01*
X14500Y544000D02*
X40500D01*
X14500Y490000D02*
Y494000D01*
Y544000D01*
Y490000D02*
X40500D01*
Y496000D01*
X14500Y493000D02*
X40500D01*
Y494000D02*
Y544000D01*
X1379998Y1046500D02*
Y1096500D01*
X1353999Y1045500D02*
X1379998D01*
Y1042500D02*
Y1048500D01*
X1353999Y1042500D02*
X1379998D01*
X1353999Y1046500D02*
Y1096500D01*
Y1042500D02*
Y1046500D01*
Y1096500D02*
X1379998D01*
X1353999Y1042500D02*
X1379998D01*
X1213998D02*
X1239998D01*
X1213998Y1096500D02*
X1239998D01*
X1213998Y1042500D02*
Y1046500D01*
Y1096500D01*
Y1042500D02*
X1239998D01*
Y1048500D01*
X1213998Y1045500D02*
X1239998D01*
Y1046500D02*
Y1096500D01*
X1099998Y1046500D02*
Y1096500D01*
X1073998Y1045500D02*
X1099998D01*
Y1042500D02*
Y1048500D01*
X1073998Y1042500D02*
X1099998D01*
X1073998Y1046500D02*
Y1096500D01*
Y1042500D02*
Y1046500D01*
Y1096500D02*
X1099998D01*
X1073998Y1042500D02*
X1099998D01*
X933998D02*
X959998D01*
X933998Y1096500D02*
X959998D01*
X933998Y1042500D02*
Y1046500D01*
Y1096500D01*
Y1042500D02*
X959998D01*
Y1048500D01*
X933998Y1045500D02*
X959998D01*
Y1046500D02*
Y1096500D01*
X819998Y1046500D02*
Y1096500D01*
X793998Y1045500D02*
X819998D01*
Y1042500D02*
Y1048500D01*
X793998Y1042500D02*
X819998D01*
X793998Y1046500D02*
Y1096500D01*
Y1042500D02*
Y1046500D01*
Y1096500D02*
X819998D01*
X793998Y1042500D02*
X819998D01*
X653998D02*
X679998D01*
X653998Y1096500D02*
X679998D01*
X653998Y1042500D02*
Y1046500D01*
Y1096500D01*
Y1042500D02*
X679998D01*
Y1048500D01*
X653998Y1045500D02*
X679998D01*
Y1046500D02*
Y1096500D01*
X539999Y1046500D02*
Y1096500D01*
X513998Y1045500D02*
X539999D01*
Y1042500D02*
Y1048500D01*
X513998Y1042500D02*
X539999D01*
X513998Y1046500D02*
Y1096500D01*
Y1042500D02*
Y1046500D01*
Y1096500D02*
X539999D01*
X513998Y1042500D02*
X539999D01*
X373998D02*
X399999D01*
X373998Y1096500D02*
X399999D01*
X373998Y1042500D02*
Y1046500D01*
Y1096500D01*
Y1042500D02*
X399999D01*
Y1048500D01*
X373998Y1045500D02*
X399999D01*
Y1046500D02*
Y1096500D01*
X259998Y1046500D02*
Y1096500D01*
X233999Y1045500D02*
X259998D01*
Y1042500D02*
Y1048500D01*
X233999Y1042500D02*
X259998D01*
X233999Y1046500D02*
Y1096500D01*
Y1042500D02*
Y1046500D01*
Y1096500D02*
X259998D01*
X233999Y1042500D02*
X259998D01*
X93998D02*
X119999D01*
X93998Y1096500D02*
X119999D01*
X93998Y1042500D02*
Y1046500D01*
Y1096500D01*
Y1042500D02*
X119999D01*
Y1048500D01*
X93998Y1045500D02*
X119999D01*
Y1046500D02*
Y1096500D01*
X1354500Y490000D02*
Y540000D01*
Y541000D02*
X1380500D01*
X1354500Y538000D02*
Y544000D01*
X1380500D01*
Y490000D02*
Y540000D01*
Y544000D01*
X1354500Y490000D02*
X1380500D01*
X1354500Y544000D02*
X1380500D01*
X1217000D02*
X1243000D01*
X1217000Y490000D02*
X1243000D01*
Y540000D02*
Y544000D01*
Y490000D02*
Y540000D01*
X1217000Y544000D02*
X1243000D01*
X1217000Y538000D02*
Y544000D01*
Y541000D02*
X1243000D01*
X1217000Y490000D02*
Y540000D01*
X794500Y489990D02*
Y539990D01*
Y540990D02*
X820500D01*
X794500Y537990D02*
Y543990D01*
X820500D01*
Y489990D02*
Y539990D01*
Y543990D01*
X794500Y489990D02*
X820500D01*
X794500Y543990D02*
X820500D01*
X649500D02*
X675500D01*
X649500Y489990D02*
X675500D01*
Y539990D02*
Y543990D01*
Y489990D02*
Y539990D01*
X649500Y543990D02*
X675500D01*
X649500Y537990D02*
Y543990D01*
Y540990D02*
X675500D01*
X649500Y489990D02*
Y539990D01*
X1077000Y490000D02*
Y540000D01*
Y541000D02*
X1103000D01*
X1077000Y538000D02*
Y544000D01*
X1103000D01*
Y490000D02*
Y540000D01*
Y544000D01*
X1077000Y490000D02*
X1103000D01*
X1077000Y544000D02*
X1103000D01*
X934500D02*
X960500D01*
X934500Y490000D02*
X960500D01*
Y540000D02*
Y544000D01*
Y490000D02*
Y540000D01*
X934500Y544000D02*
X960500D01*
X934500Y538000D02*
Y544000D01*
Y541000D02*
X960500D01*
X934500Y490000D02*
Y540000D01*
X512000Y489990D02*
Y539990D01*
Y540990D02*
X538000D01*
X512000Y537990D02*
Y543990D01*
X538000D01*
Y489990D02*
Y539990D01*
Y543990D01*
X512000Y489990D02*
X538000D01*
X512000Y543990D02*
X538000D01*
X372000D02*
X398000D01*
X372000Y489990D02*
X398000D01*
Y539990D02*
Y543990D01*
Y489990D02*
Y539990D01*
X372000Y543990D02*
X398000D01*
X372000Y537990D02*
Y543990D01*
Y540990D02*
X398000D01*
X372000Y489990D02*
Y539990D01*
X232000Y489990D02*
Y539990D01*
Y540990D02*
X258000D01*
X232000Y537990D02*
Y543990D01*
X258000D01*
Y489990D02*
Y539990D01*
Y543990D01*
X232000Y489990D02*
X258000D01*
X232000Y543990D02*
X258000D01*
X94500D02*
X120500D01*
X94500Y489990D02*
X120500D01*
Y539990D02*
Y543990D01*
Y489990D02*
Y539990D01*
X94500Y543990D02*
X120500D01*
X94500Y537990D02*
Y543990D01*
Y540990D02*
X120500D01*
X94500Y489990D02*
Y539990D01*
X962000Y889050D02*
X973825D01*
X992000Y838650D02*
Y889050D01*
X980175D02*
X992000D01*
X962000Y838650D02*
X992000D01*
X962000D02*
Y889050D01*
X973825D02*
X980175D01*
X814825D02*
X821175D01*
X803000Y838650D02*
Y889050D01*
Y838650D02*
X833000D01*
X821175Y889050D02*
X833000D01*
Y838650D02*
Y889050D01*
X803000D02*
X814825D01*
X667000D02*
X678825D01*
X697000Y838650D02*
Y889050D01*
X685175D02*
X697000D01*
X667000Y838650D02*
X697000D01*
X667000D02*
Y889050D01*
X678825D02*
X685175D01*
X551325D02*
X557675D01*
X539500Y838650D02*
Y889050D01*
Y838650D02*
X569500D01*
X557675Y889050D02*
X569500D01*
Y838650D02*
Y889050D01*
X539500D02*
X551325D01*
X379500D02*
X391325D01*
X409500Y838650D02*
Y889050D01*
X397675D02*
X409500D01*
X379500Y838650D02*
X409500D01*
X379500D02*
Y889050D01*
X391325D02*
X397675D01*
X973825Y772050D02*
X980175D01*
X962000Y721650D02*
Y772050D01*
Y721650D02*
X992000D01*
X980175Y772050D02*
X992000D01*
Y721650D02*
Y772050D01*
X962000D02*
X973825D01*
X667000D02*
X678825D01*
X697000Y721650D02*
Y772050D01*
X685175D02*
X697000D01*
X667000Y721650D02*
X697000D01*
X667000D02*
Y772050D01*
X678825D02*
X685175D01*
X814825D02*
X821175D01*
X803000Y721650D02*
Y772050D01*
Y721650D02*
X833000D01*
X821175Y772050D02*
X833000D01*
Y721650D02*
Y772050D01*
X803000D02*
X814825D01*
X539500D02*
X551325D01*
X569500Y721650D02*
Y772050D01*
X557675D02*
X569500D01*
X539500Y721650D02*
X569500D01*
X539500D02*
Y772050D01*
X551325D02*
X557675D01*
X391325D02*
X397675D01*
X379500Y721650D02*
Y772050D01*
Y721650D02*
X409500D01*
X397675Y772050D02*
X409500D01*
Y721650D02*
Y772050D01*
X379500D02*
X391325D01*
X15997Y879496D02*
X11999D01*
X13998D01*
Y869499D01*
X11999Y867500D01*
X9999D01*
X8000Y869499D01*
X19996Y867500D02*
Y879496D01*
X25994D01*
X27994Y877497D01*
Y873498D01*
X25994Y871499D01*
X19996D01*
X31992Y873498D02*
X39990D01*
X35991Y877497D02*
Y869499D01*
X15997Y799296D02*
X11999D01*
X13998D01*
Y789299D01*
X11999Y787300D01*
X9999D01*
X8000Y789299D01*
X19996Y787300D02*
Y799296D01*
X25994D01*
X27994Y797297D01*
Y793298D01*
X25994Y791299D01*
X19996D01*
X31992Y793298D02*
X39990D01*
X1296997Y1124004D02*
X1292999D01*
X1294998D01*
Y1134001D01*
X1292999Y1136000D01*
X1290999D01*
X1289000Y1134001D01*
X1300996Y1136000D02*
Y1124004D01*
X1306994D01*
X1308994Y1126003D01*
Y1130002D01*
X1306994Y1132001D01*
X1300996D01*
X1312992Y1136000D02*
X1316991D01*
X1314992D01*
Y1124004D01*
X1312992Y1126003D01*
X1348496Y807603D02*
Y811601D01*
Y809602D01*
X1338499D01*
X1336500Y811601D01*
Y813601D01*
X1338499Y815600D01*
X1336500Y803604D02*
X1348496D01*
Y797606D01*
X1346497Y795607D01*
X1342498D01*
X1340499Y797606D01*
Y803604D01*
X1336500Y791608D02*
X1348496D01*
Y785610D01*
X1346497Y783610D01*
X1342498D01*
X1340499Y785610D01*
Y791608D01*
Y787609D02*
X1336500Y783610D01*
Y773614D02*
Y777612D01*
X1338499Y779612D01*
X1342498D01*
X1344497Y777612D01*
Y773614D01*
X1342498Y771614D01*
X1340499D01*
Y779612D01*
X1336500Y765616D02*
X1346497D01*
X1342498D01*
Y767616D01*
Y763617D01*
Y765616D01*
X1346497D01*
X1348496Y763617D01*
X1156997Y1124004D02*
X1152999D01*
X1154998D01*
Y1134001D01*
X1152999Y1136000D01*
X1150999D01*
X1149000Y1134001D01*
X1160996Y1136000D02*
Y1124004D01*
X1166994D01*
X1168994Y1126003D01*
Y1130002D01*
X1166994Y1132001D01*
X1160996D01*
X1180990Y1136000D02*
X1172992D01*
X1180990Y1128003D01*
Y1126003D01*
X1178990Y1124004D01*
X1174992D01*
X1172992Y1126003D01*
X1016997Y1124004D02*
X1012999D01*
X1014998D01*
Y1134001D01*
X1012999Y1136000D01*
X1010999D01*
X1009000Y1134001D01*
X1020996Y1136000D02*
Y1124004D01*
X1026994D01*
X1028994Y1126003D01*
Y1130002D01*
X1026994Y1132001D01*
X1020996D01*
X1032992Y1126003D02*
X1034992Y1124004D01*
X1038990D01*
X1040990Y1126003D01*
Y1128003D01*
X1038990Y1130002D01*
X1036991D01*
X1038990D01*
X1040990Y1132001D01*
Y1134001D01*
X1038990Y1136000D01*
X1034992D01*
X1032992Y1134001D01*
X876997Y1124004D02*
X872999D01*
X874998D01*
Y1134001D01*
X872999Y1136000D01*
X870999D01*
X869000Y1134001D01*
X880996Y1136000D02*
Y1124004D01*
X886994D01*
X888994Y1126003D01*
Y1130002D01*
X886994Y1132001D01*
X880996D01*
X898990Y1136000D02*
Y1124004D01*
X892992Y1130002D01*
X900990D01*
X736997Y1124004D02*
X732999D01*
X734998D01*
Y1134001D01*
X732999Y1136000D01*
X730999D01*
X729000Y1134001D01*
X740996Y1136000D02*
Y1124004D01*
X746994D01*
X748994Y1126003D01*
Y1130002D01*
X746994Y1132001D01*
X740996D01*
X760990Y1124004D02*
X752992D01*
Y1130002D01*
X756991Y1128003D01*
X758990D01*
X760990Y1130002D01*
Y1134001D01*
X758990Y1136000D01*
X754992D01*
X752992Y1134001D01*
X596997Y1124004D02*
X592999D01*
X594998D01*
Y1134001D01*
X592999Y1136000D01*
X590999D01*
X589000Y1134001D01*
X600996Y1136000D02*
Y1124004D01*
X606994D01*
X608993Y1126003D01*
Y1130002D01*
X606994Y1132001D01*
X600996D01*
X620990Y1124004D02*
X616991Y1126003D01*
X612992Y1130002D01*
Y1134001D01*
X614992Y1136000D01*
X618990D01*
X620990Y1134001D01*
Y1132001D01*
X618990Y1130002D01*
X612992D01*
X456997Y1124004D02*
X452999D01*
X454998D01*
Y1134001D01*
X452999Y1136000D01*
X450999D01*
X449000Y1134001D01*
X460996Y1136000D02*
Y1124004D01*
X466994D01*
X468993Y1126003D01*
Y1130002D01*
X466994Y1132001D01*
X460996D01*
X472992Y1124004D02*
X480990D01*
Y1126003D01*
X472992Y1134001D01*
Y1136000D01*
X318507Y1124004D02*
X314509D01*
X316508D01*
Y1134001D01*
X314509Y1136000D01*
X312509D01*
X310510Y1134001D01*
X322506Y1136000D02*
Y1124004D01*
X328504D01*
X330504Y1126003D01*
Y1130002D01*
X328504Y1132001D01*
X322506D01*
X334502Y1126003D02*
X336502Y1124004D01*
X340500D01*
X342500Y1126003D01*
Y1128003D01*
X340500Y1130002D01*
X342500Y1132001D01*
Y1134001D01*
X340500Y1136000D01*
X336502D01*
X334502Y1134001D01*
Y1132001D01*
X336502Y1130002D01*
X334502Y1128003D01*
Y1126003D01*
X336502Y1130002D02*
X340500D01*
X176997Y1124004D02*
X172999D01*
X174998D01*
Y1134001D01*
X172999Y1136000D01*
X170999D01*
X169000Y1134001D01*
X180996Y1136000D02*
Y1124004D01*
X186994D01*
X188993Y1126003D01*
Y1130002D01*
X186994Y1132001D01*
X180996D01*
X192992Y1134001D02*
X194992Y1136000D01*
X198990D01*
X200990Y1134001D01*
Y1126003D01*
X198990Y1124004D01*
X194992D01*
X192992Y1126003D01*
Y1128003D01*
X194992Y1130002D01*
X200990D01*
X47997Y1123004D02*
X43999D01*
X45998D01*
Y1133001D01*
X43999Y1135000D01*
X41999D01*
X40000Y1133001D01*
X51996Y1135000D02*
Y1123004D01*
X57994D01*
X59994Y1125003D01*
Y1129002D01*
X57994Y1131001D01*
X51996D01*
X63992Y1135000D02*
X67991D01*
X65992D01*
Y1123004D01*
X63992Y1125003D01*
X73989D02*
X75988Y1123004D01*
X79987D01*
X81986Y1125003D01*
Y1133001D01*
X79987Y1135000D01*
X75988D01*
X73989Y1133001D01*
Y1125003D01*
X36997Y569004D02*
X32999D01*
X34998D01*
Y579001D01*
X32999Y581000D01*
X30999D01*
X29000Y579001D01*
X40996Y581000D02*
Y569004D01*
X46994D01*
X48994Y571003D01*
Y575002D01*
X46994Y577001D01*
X40996D01*
X60990Y581000D02*
X52992D01*
X60990Y573003D01*
Y571003D01*
X58990Y569004D01*
X54992D01*
X52992Y571003D01*
X64988D02*
X66988Y569004D01*
X70986D01*
X72986Y571003D01*
Y579001D01*
X70986Y581000D01*
X66988D01*
X64988Y579001D01*
Y571003D01*
X176997Y569004D02*
X172999D01*
X174998D01*
Y579001D01*
X172999Y581000D01*
X170999D01*
X169000Y579001D01*
X180996Y581000D02*
Y569004D01*
X186994D01*
X188993Y571003D01*
Y575002D01*
X186994Y577001D01*
X180996D01*
X192992Y581000D02*
X196991D01*
X194992D01*
Y569004D01*
X192992Y571003D01*
X202989Y579001D02*
X204988Y581000D01*
X208987D01*
X210986Y579001D01*
Y571003D01*
X208987Y569004D01*
X204988D01*
X202989Y571003D01*
Y573003D01*
X204988Y575002D01*
X210986D01*
X316997Y569004D02*
X312999D01*
X314998D01*
Y579001D01*
X312999Y581000D01*
X310999D01*
X309000Y579001D01*
X320996Y581000D02*
Y569004D01*
X326994D01*
X328993Y571003D01*
Y575002D01*
X326994Y577001D01*
X320996D01*
X332992Y581000D02*
X336991D01*
X334992D01*
Y569004D01*
X332992Y571003D01*
X342989D02*
X344988Y569004D01*
X348987D01*
X350986Y571003D01*
Y573003D01*
X348987Y575002D01*
X350986Y577001D01*
Y579001D01*
X348987Y581000D01*
X344988D01*
X342989Y579001D01*
Y577001D01*
X344988Y575002D01*
X342989Y573003D01*
Y571003D01*
X344988Y575002D02*
X348987D01*
X456997Y569004D02*
X452999D01*
X454998D01*
Y579001D01*
X452999Y581000D01*
X450999D01*
X449000Y579001D01*
X460996Y581000D02*
Y569004D01*
X466994D01*
X468993Y571003D01*
Y575002D01*
X466994Y577001D01*
X460996D01*
X472992Y581000D02*
X476991D01*
X474992D01*
Y569004D01*
X472992Y571003D01*
X482989Y569004D02*
X490986D01*
Y571003D01*
X482989Y579001D01*
Y581000D01*
X876997Y569004D02*
X872999D01*
X874998D01*
Y579001D01*
X872999Y581000D01*
X870999D01*
X869000Y579001D01*
X880996Y581000D02*
Y569004D01*
X886994D01*
X888994Y571003D01*
Y575002D01*
X886994Y577001D01*
X880996D01*
X892992Y581000D02*
X896991D01*
X894992D01*
Y569004D01*
X892992Y571003D01*
X908987Y581000D02*
Y569004D01*
X902989Y575002D01*
X910986D01*
X1016997Y569004D02*
X1012999D01*
X1014998D01*
Y579001D01*
X1012999Y581000D01*
X1010999D01*
X1009000Y579001D01*
X1020996Y581000D02*
Y569004D01*
X1026994D01*
X1028994Y571003D01*
Y575002D01*
X1026994Y577001D01*
X1020996D01*
X1032992Y581000D02*
X1036991D01*
X1034992D01*
Y569004D01*
X1032992Y571003D01*
X1042989D02*
X1044988Y569004D01*
X1048987D01*
X1050986Y571003D01*
Y573003D01*
X1048987Y575002D01*
X1046988D01*
X1048987D01*
X1050986Y577001D01*
Y579001D01*
X1048987Y581000D01*
X1044988D01*
X1042989Y579001D01*
X596997Y569004D02*
X592999D01*
X594998D01*
Y579001D01*
X592999Y581000D01*
X590999D01*
X589000Y579001D01*
X600996Y581000D02*
Y569004D01*
X606994D01*
X608993Y571003D01*
Y575002D01*
X606994Y577001D01*
X600996D01*
X612992Y581000D02*
X616991D01*
X614992D01*
Y569004D01*
X612992Y571003D01*
X630986Y569004D02*
X626988Y571003D01*
X622989Y575002D01*
Y579001D01*
X624988Y581000D01*
X628987D01*
X630986Y579001D01*
Y577001D01*
X628987Y575002D01*
X622989D01*
X736997Y569004D02*
X732999D01*
X734998D01*
Y579001D01*
X732999Y581000D01*
X730999D01*
X729000Y579001D01*
X740996Y581000D02*
Y569004D01*
X746994D01*
X748994Y571003D01*
Y575002D01*
X746994Y577001D01*
X740996D01*
X752992Y581000D02*
X756991D01*
X754992D01*
Y569004D01*
X752992Y571003D01*
X770986Y569004D02*
X762989D01*
Y575002D01*
X766988Y573003D01*
X768987D01*
X770986Y575002D01*
Y579001D01*
X768987Y581000D01*
X764988D01*
X762989Y579001D01*
X1156997Y569004D02*
X1152999D01*
X1154998D01*
Y579001D01*
X1152999Y581000D01*
X1150999D01*
X1149000Y579001D01*
X1160996Y581000D02*
Y569004D01*
X1166994D01*
X1168994Y571003D01*
Y575002D01*
X1166994Y577001D01*
X1160996D01*
X1172992Y581000D02*
X1176991D01*
X1174992D01*
Y569004D01*
X1172992Y571003D01*
X1190986Y581000D02*
X1182989D01*
X1190986Y573003D01*
Y571003D01*
X1188987Y569004D01*
X1184988D01*
X1182989Y571003D01*
X1296997Y569004D02*
X1292999D01*
X1294998D01*
Y579001D01*
X1292999Y581000D01*
X1290999D01*
X1289000Y579001D01*
X1300996Y581000D02*
Y569004D01*
X1306994D01*
X1308994Y571003D01*
Y575002D01*
X1306994Y577001D01*
X1300996D01*
X1312992Y581000D02*
X1316991D01*
X1314992D01*
Y569004D01*
X1312992Y571003D01*
X1322989Y581000D02*
X1326988D01*
X1324988D01*
Y569004D01*
X1322989Y571003D01*
D11*
X968414Y883650D02*
G03*
X968414Y883650I-1414J0D01*
G01*
X809414D02*
G03*
X809414Y883650I-1414J0D01*
G01*
X673414D02*
G03*
X673414Y883650I-1414J0D01*
G01*
X545914D02*
G03*
X545914Y883650I-1414J0D01*
G01*
X385914D02*
G03*
X385914Y883650I-1414J0D01*
G01*
X968414Y766650D02*
G03*
X968414Y766650I-1414J0D01*
G01*
X673414D02*
G03*
X673414Y766650I-1414J0D01*
G01*
X809414D02*
G03*
X809414Y766650I-1414J0D01*
G01*
X545914D02*
G03*
X545914Y766650I-1414J0D01*
G01*
X385914D02*
G03*
X385914Y766650I-1414J0D01*
G01*
D32*
X27500Y892000D02*
G03*
X27500Y892000I-1000J0D01*
G01*
Y811800D02*
G03*
X27500Y811800I-1000J0D01*
G01*
X1374000Y1121000D02*
G03*
X1374000Y1121000I-1000J0D01*
G01*
X1352500Y731600D02*
G03*
X1352500Y731600I-1000J0D01*
G01*
X1234000Y1121000D02*
G03*
X1234000Y1121000I-1000J0D01*
G01*
X1094000D02*
G03*
X1094000Y1121000I-1000J0D01*
G01*
X954000D02*
G03*
X954000Y1121000I-1000J0D01*
G01*
X814000D02*
G03*
X814000Y1121000I-1000J0D01*
G01*
X674000D02*
G03*
X674000Y1121000I-1000J0D01*
G01*
X534000D02*
G03*
X534000Y1121000I-1000J0D01*
G01*
X395510D02*
G03*
X395510Y1121000I-1000J0D01*
G01*
X254000D02*
G03*
X254000Y1121000I-1000J0D01*
G01*
X114000D02*
G03*
X114000Y1121000I-1000J0D01*
G01*
X114000Y566000D02*
G03*
X114000Y566000I-1000J0D01*
G01*
X254000D02*
G03*
X254000Y566000I-1000J0D01*
G01*
X394000D02*
G03*
X394000Y566000I-1000J0D01*
G01*
X534000D02*
G03*
X534000Y566000I-1000J0D01*
G01*
X954000D02*
G03*
X954000Y566000I-1000J0D01*
G01*
X1094000D02*
G03*
X1094000Y566000I-1000J0D01*
G01*
X674000D02*
G03*
X674000Y566000I-1000J0D01*
G01*
X814000D02*
G03*
X814000Y566000I-1000J0D01*
G01*
X1234000D02*
G03*
X1234000Y566000I-1000J0D01*
G01*
X1374000D02*
G03*
X1374000Y566000I-1000J0D01*
G01*
D33*
X1376190Y1177540D02*
Y1171542D01*
X1373191D01*
X1372191Y1172542D01*
Y1174541D01*
X1373191Y1175541D01*
X1376190D01*
X1374191D02*
X1372191Y1177540D01*
X1370192D02*
X1368193D01*
X1369192D01*
Y1171542D01*
X1370192Y1172542D01*
X1379960Y767700D02*
X1385958D01*
Y764701D01*
X1384958Y763701D01*
X1382959D01*
X1381959Y764701D01*
Y767700D01*
Y765701D02*
X1379960Y763701D01*
X1384958Y761702D02*
X1385958Y760702D01*
Y758703D01*
X1384958Y757703D01*
X1380960D01*
X1379960Y758703D01*
Y760702D01*
X1380960Y761702D01*
X1384958D01*
X1236190Y1177540D02*
Y1171542D01*
X1233191D01*
X1232191Y1172542D01*
Y1174541D01*
X1233191Y1175541D01*
X1236190D01*
X1234191D02*
X1232191Y1177540D01*
X1226193D02*
X1230192D01*
X1226193Y1173541D01*
Y1172542D01*
X1227193Y1171542D01*
X1229192D01*
X1230192Y1172542D01*
X1096190Y1177540D02*
Y1171542D01*
X1093191D01*
X1092191Y1172542D01*
Y1174541D01*
X1093191Y1175541D01*
X1096190D01*
X1094191D02*
X1092191Y1177540D01*
X1090192Y1172542D02*
X1089192Y1171542D01*
X1087193D01*
X1086193Y1172542D01*
Y1173541D01*
X1087193Y1174541D01*
X1088193D01*
X1087193D01*
X1086193Y1175541D01*
Y1176540D01*
X1087193Y1177540D01*
X1089192D01*
X1090192Y1176540D01*
X956190Y1177540D02*
Y1171542D01*
X953191D01*
X952191Y1172542D01*
Y1174541D01*
X953191Y1175541D01*
X956190D01*
X954191D02*
X952191Y1177540D01*
X947193D02*
Y1171542D01*
X950192Y1174541D01*
X946193D01*
X1324960Y1071710D02*
X1330958D01*
Y1068711D01*
X1329958Y1067711D01*
X1327959D01*
X1326959Y1068711D01*
Y1071710D01*
Y1069711D02*
X1324960Y1067711D01*
Y1061713D02*
Y1065712D01*
X1328959Y1061713D01*
X1329958D01*
X1330958Y1062713D01*
Y1064712D01*
X1329958Y1065712D01*
X1324960Y1059714D02*
Y1057714D01*
Y1058714D01*
X1330958D01*
X1329958Y1059714D01*
X1184960Y1071710D02*
X1190958D01*
Y1068711D01*
X1189958Y1067711D01*
X1187959D01*
X1186959Y1068711D01*
Y1071710D01*
Y1069711D02*
X1184960Y1067711D01*
Y1061713D02*
Y1065712D01*
X1188959Y1061713D01*
X1189958D01*
X1190958Y1062713D01*
Y1064712D01*
X1189958Y1065712D01*
X1184960Y1055715D02*
Y1059714D01*
X1188959Y1055715D01*
X1189958D01*
X1190958Y1056715D01*
Y1058714D01*
X1189958Y1059714D01*
X1044960Y1071710D02*
X1050958D01*
Y1068711D01*
X1049958Y1067711D01*
X1047959D01*
X1046959Y1068711D01*
Y1071710D01*
Y1069711D02*
X1044960Y1067711D01*
Y1061713D02*
Y1065712D01*
X1048959Y1061713D01*
X1049958D01*
X1050958Y1062713D01*
Y1064712D01*
X1049958Y1065712D01*
Y1059714D02*
X1050958Y1058714D01*
Y1056715D01*
X1049958Y1055715D01*
X1048959D01*
X1047959Y1056715D01*
Y1057714D01*
Y1056715D01*
X1046959Y1055715D01*
X1045960D01*
X1044960Y1056715D01*
Y1058714D01*
X1045960Y1059714D01*
X904960Y1072700D02*
X910958D01*
Y1069701D01*
X909958Y1068701D01*
X907959D01*
X906959Y1069701D01*
Y1072700D01*
Y1070701D02*
X904960Y1068701D01*
Y1062703D02*
Y1066702D01*
X908959Y1062703D01*
X909958D01*
X910958Y1063703D01*
Y1065702D01*
X909958Y1066702D01*
X904960Y1057705D02*
X910958D01*
X907959Y1060704D01*
Y1056705D01*
X816190Y1177540D02*
Y1171542D01*
X813191D01*
X812191Y1172542D01*
Y1174541D01*
X813191Y1175541D01*
X816190D01*
X814191D02*
X812191Y1177540D01*
X806193Y1171542D02*
X810192D01*
Y1174541D01*
X808193Y1173541D01*
X807193D01*
X806193Y1174541D01*
Y1176540D01*
X807193Y1177540D01*
X809192D01*
X810192Y1176540D01*
X676190Y1177540D02*
Y1171542D01*
X673191D01*
X672191Y1172542D01*
Y1174541D01*
X673191Y1175541D01*
X676190D01*
X674191D02*
X672191Y1177540D01*
X666193Y1171542D02*
X668193Y1172542D01*
X670192Y1174541D01*
Y1176540D01*
X669192Y1177540D01*
X667193D01*
X666193Y1176540D01*
Y1175541D01*
X667193Y1174541D01*
X670192D01*
X536190Y1177540D02*
Y1171542D01*
X533191D01*
X532191Y1172542D01*
Y1174541D01*
X533191Y1175541D01*
X536190D01*
X534191D02*
X532191Y1177540D01*
X530192Y1171542D02*
X526193D01*
Y1172542D01*
X530192Y1176540D01*
Y1177540D01*
X397700D02*
Y1171542D01*
X394701D01*
X393701Y1172542D01*
Y1174541D01*
X394701Y1175541D01*
X397700D01*
X395701D02*
X393701Y1177540D01*
X391702Y1172542D02*
X390702Y1171542D01*
X388703D01*
X387703Y1172542D01*
Y1173541D01*
X388703Y1174541D01*
X387703Y1175541D01*
Y1176540D01*
X388703Y1177540D01*
X390702D01*
X391702Y1176540D01*
Y1175541D01*
X390702Y1174541D01*
X391702Y1173541D01*
Y1172542D01*
X390702Y1174541D02*
X388703D01*
X764960Y1071710D02*
X770958D01*
Y1068711D01*
X769958Y1067711D01*
X767959D01*
X766959Y1068711D01*
Y1071710D01*
Y1069711D02*
X764960Y1067711D01*
Y1061713D02*
Y1065712D01*
X768959Y1061713D01*
X769958D01*
X770958Y1062713D01*
Y1064712D01*
X769958Y1065712D01*
X770958Y1055715D02*
Y1059714D01*
X767959D01*
X768959Y1057714D01*
Y1056715D01*
X767959Y1055715D01*
X765960D01*
X764960Y1056715D01*
Y1058714D01*
X765960Y1059714D01*
X624960Y1071710D02*
X630958D01*
Y1068711D01*
X629958Y1067711D01*
X627959D01*
X626959Y1068711D01*
Y1071710D01*
Y1069711D02*
X624960Y1067711D01*
Y1061713D02*
Y1065712D01*
X628959Y1061713D01*
X629958D01*
X630958Y1062713D01*
Y1064712D01*
X629958Y1065712D01*
X630958Y1055715D02*
X629958Y1057714D01*
X627959Y1059714D01*
X625960D01*
X624960Y1058714D01*
Y1056715D01*
X625960Y1055715D01*
X626959D01*
X627959Y1056715D01*
Y1059714D01*
X484960Y1071710D02*
X490958D01*
Y1068711D01*
X489958Y1067711D01*
X487959D01*
X486959Y1068711D01*
Y1071710D01*
Y1069711D02*
X484960Y1067711D01*
Y1061713D02*
Y1065712D01*
X488959Y1061713D01*
X489958D01*
X490958Y1062713D01*
Y1064712D01*
X489958Y1065712D01*
X490958Y1059714D02*
Y1055715D01*
X489958D01*
X485960Y1059714D01*
X484960D01*
X344960Y1071710D02*
X350958D01*
Y1068711D01*
X349958Y1067711D01*
X347959D01*
X346959Y1068711D01*
Y1071710D01*
Y1069711D02*
X344960Y1067711D01*
Y1061713D02*
Y1065712D01*
X348959Y1061713D01*
X349958D01*
X350958Y1062713D01*
Y1064712D01*
X349958Y1065712D01*
Y1059714D02*
X350958Y1058714D01*
Y1056715D01*
X349958Y1055715D01*
X348959D01*
X347959Y1056715D01*
X346959Y1055715D01*
X345960D01*
X344960Y1056715D01*
Y1058714D01*
X345960Y1059714D01*
X346959D01*
X347959Y1058714D01*
X348959Y1059714D01*
X349958D01*
X347959Y1058714D02*
Y1056715D01*
X256190Y1177540D02*
Y1171542D01*
X253191D01*
X252191Y1172542D01*
Y1174541D01*
X253191Y1175541D01*
X256190D01*
X254191D02*
X252191Y1177540D01*
X250192Y1176540D02*
X249192Y1177540D01*
X247193D01*
X246193Y1176540D01*
Y1172542D01*
X247193Y1171542D01*
X249192D01*
X250192Y1172542D01*
Y1173541D01*
X249192Y1174541D01*
X246193D01*
X116190Y1177540D02*
Y1171542D01*
X113191D01*
X112191Y1172542D01*
Y1174541D01*
X113191Y1175541D01*
X116190D01*
X114191D02*
X112191Y1177540D01*
X110192D02*
X108193D01*
X109192D01*
Y1171542D01*
X110192Y1172542D01*
X105194D02*
X104194Y1171542D01*
X102194D01*
X101195Y1172542D01*
Y1176540D01*
X102194Y1177540D01*
X104194D01*
X105194Y1176540D01*
Y1172542D01*
X1375200Y625040D02*
Y619042D01*
X1372201D01*
X1371201Y620042D01*
Y622041D01*
X1372201Y623041D01*
X1375200D01*
X1373201D02*
X1371201Y625040D01*
X1369202D02*
X1367203D01*
X1368202D01*
Y619042D01*
X1369202Y620042D01*
X1364204Y625040D02*
X1362204D01*
X1363204D01*
Y619042D01*
X1364204Y620042D01*
X1235200Y625040D02*
Y619042D01*
X1232201D01*
X1231201Y620042D01*
Y622041D01*
X1232201Y623041D01*
X1235200D01*
X1233201D02*
X1231201Y625040D01*
X1229202D02*
X1227203D01*
X1228202D01*
Y619042D01*
X1229202Y620042D01*
X1220205Y625040D02*
X1224204D01*
X1220205Y621041D01*
Y620042D01*
X1221205Y619042D01*
X1223204D01*
X1224204Y620042D01*
X204960Y1071710D02*
X210958D01*
Y1068711D01*
X209958Y1067711D01*
X207959D01*
X206959Y1068711D01*
Y1071710D01*
Y1069711D02*
X204960Y1067711D01*
Y1061713D02*
Y1065712D01*
X208959Y1061713D01*
X209958D01*
X210958Y1062713D01*
Y1064712D01*
X209958Y1065712D01*
X205960Y1059714D02*
X204960Y1058714D01*
Y1056715D01*
X205960Y1055715D01*
X209958D01*
X210958Y1056715D01*
Y1058714D01*
X209958Y1059714D01*
X208959D01*
X207959Y1058714D01*
Y1055715D01*
X64960Y1071710D02*
X70958D01*
Y1068711D01*
X69958Y1067711D01*
X67959D01*
X66959Y1068711D01*
Y1071710D01*
Y1069711D02*
X64960Y1067711D01*
X69958Y1065712D02*
X70958Y1064712D01*
Y1062713D01*
X69958Y1061713D01*
X68959D01*
X67959Y1062713D01*
Y1063713D01*
Y1062713D01*
X66959Y1061713D01*
X65960D01*
X64960Y1062713D01*
Y1064712D01*
X65960Y1065712D01*
X69958Y1059714D02*
X70958Y1058714D01*
Y1056715D01*
X69958Y1055715D01*
X65960D01*
X64960Y1056715D01*
Y1058714D01*
X65960Y1059714D01*
X69958D01*
X1332540Y492300D02*
X1326542D01*
Y495299D01*
X1327542Y496299D01*
X1329541D01*
X1330541Y495299D01*
Y492300D01*
Y494299D02*
X1332540Y496299D01*
X1327542Y498298D02*
X1326542Y499298D01*
Y501297D01*
X1327542Y502297D01*
X1328541D01*
X1329541Y501297D01*
Y500297D01*
Y501297D01*
X1330541Y502297D01*
X1331540D01*
X1332540Y501297D01*
Y499298D01*
X1331540Y498298D01*
X1332540Y504296D02*
Y506296D01*
Y505296D01*
X1326542D01*
X1327542Y504296D01*
X1192540Y492300D02*
X1186542D01*
Y495299D01*
X1187542Y496299D01*
X1189541D01*
X1190541Y495299D01*
Y492300D01*
Y494299D02*
X1192540Y496299D01*
X1187542Y498298D02*
X1186542Y499298D01*
Y501297D01*
X1187542Y502297D01*
X1188541D01*
X1189541Y501297D01*
Y500297D01*
Y501297D01*
X1190541Y502297D01*
X1191540D01*
X1192540Y501297D01*
Y499298D01*
X1191540Y498298D01*
X1192540Y508295D02*
Y504296D01*
X1188541Y508295D01*
X1187542D01*
X1186542Y507295D01*
Y505296D01*
X1187542Y504296D01*
X815200Y625040D02*
Y619042D01*
X812201D01*
X811201Y620042D01*
Y622041D01*
X812201Y623041D01*
X815200D01*
X813201D02*
X811201Y625040D01*
X809202D02*
X807203D01*
X808202D01*
Y619042D01*
X809202Y620042D01*
X800205Y619042D02*
X804204D01*
Y622041D01*
X802204Y621041D01*
X801205D01*
X800205Y622041D01*
Y624040D01*
X801205Y625040D01*
X803204D01*
X804204Y624040D01*
X675200Y625040D02*
Y619042D01*
X672201D01*
X671201Y620042D01*
Y622041D01*
X672201Y623041D01*
X675200D01*
X673201D02*
X671201Y625040D01*
X669202D02*
X667203D01*
X668202D01*
Y619042D01*
X669202Y620042D01*
X660205Y619042D02*
X662204Y620042D01*
X664204Y622041D01*
Y624040D01*
X663204Y625040D01*
X661205D01*
X660205Y624040D01*
Y623041D01*
X661205Y622041D01*
X664204D01*
X1095200Y625040D02*
Y619042D01*
X1092201D01*
X1091201Y620042D01*
Y622041D01*
X1092201Y623041D01*
X1095200D01*
X1093201D02*
X1091201Y625040D01*
X1089202D02*
X1087203D01*
X1088202D01*
Y619042D01*
X1089202Y620042D01*
X1084204D02*
X1083204Y619042D01*
X1081205D01*
X1080205Y620042D01*
Y621041D01*
X1081205Y622041D01*
X1082204D01*
X1081205D01*
X1080205Y623041D01*
Y624040D01*
X1081205Y625040D01*
X1083204D01*
X1084204Y624040D01*
X955200Y625040D02*
Y619042D01*
X952201D01*
X951201Y620042D01*
Y622041D01*
X952201Y623041D01*
X955200D01*
X953201D02*
X951201Y625040D01*
X949202D02*
X947203D01*
X948202D01*
Y619042D01*
X949202Y620042D01*
X941205Y625040D02*
Y619042D01*
X944204Y622041D01*
X940205D01*
X770040Y492300D02*
X764042D01*
Y495299D01*
X765042Y496299D01*
X767041D01*
X768041Y495299D01*
Y492300D01*
Y494299D02*
X770040Y496299D01*
X765042Y498298D02*
X764042Y499298D01*
Y501297D01*
X765042Y502297D01*
X766041D01*
X767041Y501297D01*
Y500297D01*
Y501297D01*
X768041Y502297D01*
X769040D01*
X770040Y501297D01*
Y499298D01*
X769040Y498298D01*
X764042Y508295D02*
Y504296D01*
X767041D01*
X766041Y506296D01*
Y507295D01*
X767041Y508295D01*
X769040D01*
X770040Y507295D01*
Y505296D01*
X769040Y504296D01*
X625040Y492300D02*
X619042D01*
Y495299D01*
X620042Y496299D01*
X622041D01*
X623041Y495299D01*
Y492300D01*
Y494299D02*
X625040Y496299D01*
X620042Y498298D02*
X619042Y499298D01*
Y501297D01*
X620042Y502297D01*
X621041D01*
X622041Y501297D01*
Y500297D01*
Y501297D01*
X623041Y502297D01*
X624040D01*
X625040Y501297D01*
Y499298D01*
X624040Y498298D01*
X619042Y508295D02*
X620042Y506296D01*
X622041Y504296D01*
X624040D01*
X625040Y505296D01*
Y507295D01*
X624040Y508295D01*
X623041D01*
X622041Y507295D01*
Y504296D01*
X1052540Y492300D02*
X1046542D01*
Y495299D01*
X1047542Y496299D01*
X1049541D01*
X1050541Y495299D01*
Y492300D01*
Y494299D02*
X1052540Y496299D01*
X1047542Y498298D02*
X1046542Y499298D01*
Y501297D01*
X1047542Y502297D01*
X1048541D01*
X1049541Y501297D01*
Y500297D01*
Y501297D01*
X1050541Y502297D01*
X1051540D01*
X1052540Y501297D01*
Y499298D01*
X1051540Y498298D01*
X1047542Y504296D02*
X1046542Y505296D01*
Y507295D01*
X1047542Y508295D01*
X1048541D01*
X1049541Y507295D01*
Y506296D01*
Y507295D01*
X1050541Y508295D01*
X1051540D01*
X1052540Y507295D01*
Y505296D01*
X1051540Y504296D01*
X910040Y492300D02*
X904042D01*
Y495299D01*
X905042Y496299D01*
X907041D01*
X908041Y495299D01*
Y492300D01*
Y494299D02*
X910040Y496299D01*
X905042Y498298D02*
X904042Y499298D01*
Y501297D01*
X905042Y502297D01*
X906041D01*
X907041Y501297D01*
Y500297D01*
Y501297D01*
X908041Y502297D01*
X909040D01*
X910040Y501297D01*
Y499298D01*
X909040Y498298D01*
X910040Y507295D02*
X904042D01*
X907041Y504296D01*
Y508295D01*
X535200Y625040D02*
Y619042D01*
X532201D01*
X531201Y620042D01*
Y622041D01*
X532201Y623041D01*
X535200D01*
X533201D02*
X531201Y625040D01*
X529202D02*
X527203D01*
X528202D01*
Y619042D01*
X529202Y620042D01*
X524204Y619042D02*
X520205D01*
Y620042D01*
X524204Y624040D01*
Y625040D01*
X395200D02*
Y619042D01*
X392201D01*
X391201Y620042D01*
Y622041D01*
X392201Y623041D01*
X395200D01*
X393201D02*
X391201Y625040D01*
X389202D02*
X387203D01*
X388202D01*
Y619042D01*
X389202Y620042D01*
X384204D02*
X383204Y619042D01*
X381204D01*
X380205Y620042D01*
Y621041D01*
X381204Y622041D01*
X380205Y623041D01*
Y624040D01*
X381204Y625040D01*
X383204D01*
X384204Y624040D01*
Y623041D01*
X383204Y622041D01*
X384204Y621041D01*
Y620042D01*
X383204Y622041D02*
X381204D01*
X255200Y625040D02*
Y619042D01*
X252201D01*
X251201Y620042D01*
Y622041D01*
X252201Y623041D01*
X255200D01*
X253201D02*
X251201Y625040D01*
X249202D02*
X247203D01*
X248202D01*
Y619042D01*
X249202Y620042D01*
X244204Y624040D02*
X243204Y625040D01*
X241204D01*
X240205Y624040D01*
Y620042D01*
X241204Y619042D01*
X243204D01*
X244204Y620042D01*
Y621041D01*
X243204Y622041D01*
X240205D01*
X115200Y625040D02*
Y619042D01*
X112201D01*
X111201Y620042D01*
Y622041D01*
X112201Y623041D01*
X115200D01*
X113201D02*
X111201Y625040D01*
X105203D02*
X109202D01*
X105203Y621041D01*
Y620042D01*
X106203Y619042D01*
X108202D01*
X109202Y620042D01*
X103204D02*
X102204Y619042D01*
X100205D01*
X99205Y620042D01*
Y624040D01*
X100205Y625040D01*
X102204D01*
X103204Y624040D01*
Y620042D01*
X490040Y492300D02*
X484042D01*
Y495299D01*
X485042Y496299D01*
X487041D01*
X488041Y495299D01*
Y492300D01*
Y494299D02*
X490040Y496299D01*
X485042Y498298D02*
X484042Y499298D01*
Y501297D01*
X485042Y502297D01*
X486041D01*
X487041Y501297D01*
Y500297D01*
Y501297D01*
X488041Y502297D01*
X489040D01*
X490040Y501297D01*
Y499298D01*
X489040Y498298D01*
X484042Y504296D02*
Y508295D01*
X485042D01*
X489040Y504296D01*
X490040D01*
X347540Y492300D02*
X341542D01*
Y495299D01*
X342542Y496299D01*
X344541D01*
X345541Y495299D01*
Y492300D01*
Y494299D02*
X347540Y496299D01*
X342542Y498298D02*
X341542Y499298D01*
Y501297D01*
X342542Y502297D01*
X343541D01*
X344541Y501297D01*
Y500297D01*
Y501297D01*
X345541Y502297D01*
X346540D01*
X347540Y501297D01*
Y499298D01*
X346540Y498298D01*
X342542Y504296D02*
X341542Y505296D01*
Y507295D01*
X342542Y508295D01*
X343541D01*
X344541Y507295D01*
X345541Y508295D01*
X346540D01*
X347540Y507295D01*
Y505296D01*
X346540Y504296D01*
X345541D01*
X344541Y505296D01*
X343541Y504296D01*
X342542D01*
X344541Y505296D02*
Y507295D01*
X207540Y492300D02*
X201542D01*
Y495299D01*
X202542Y496299D01*
X204541D01*
X205541Y495299D01*
Y492300D01*
Y494299D02*
X207540Y496299D01*
X202542Y498298D02*
X201542Y499298D01*
Y501297D01*
X202542Y502297D01*
X203541D01*
X204541Y501297D01*
Y500297D01*
Y501297D01*
X205541Y502297D01*
X206540D01*
X207540Y501297D01*
Y499298D01*
X206540Y498298D01*
Y504296D02*
X207540Y505296D01*
Y507295D01*
X206540Y508295D01*
X202542D01*
X201542Y507295D01*
Y505296D01*
X202542Y504296D01*
X203541D01*
X204541Y505296D01*
Y508295D01*
X67540Y493800D02*
X61542D01*
Y496799D01*
X62542Y497799D01*
X64541D01*
X65541Y496799D01*
Y493800D01*
Y495799D02*
X67540Y497799D01*
Y502797D02*
X61542D01*
X64541Y499798D01*
Y503797D01*
X62542Y505796D02*
X61542Y506796D01*
Y508795D01*
X62542Y509795D01*
X66540D01*
X67540Y508795D01*
Y506796D01*
X66540Y505796D01*
X62542D01*
X1286003Y1051500D02*
X1291001D01*
Y1053999D01*
X1290168Y1054832D01*
X1286836D01*
X1286003Y1053999D01*
Y1051500D01*
X1291001Y1059831D02*
Y1056498D01*
X1287669Y1059831D01*
X1286836D01*
X1286003Y1058998D01*
Y1057331D01*
X1286836Y1056498D01*
X1291001Y1061497D02*
Y1063163D01*
Y1062330D01*
X1286003D01*
X1286836Y1061497D01*
X1146003Y1051500D02*
X1151001D01*
Y1053999D01*
X1150168Y1054832D01*
X1146836D01*
X1146003Y1053999D01*
Y1051500D01*
X1151001Y1059831D02*
Y1056498D01*
X1147669Y1059831D01*
X1146836D01*
X1146003Y1058998D01*
Y1057331D01*
X1146836Y1056498D01*
X1151001Y1064829D02*
Y1061497D01*
X1147669Y1064829D01*
X1146836D01*
X1146003Y1063996D01*
Y1062330D01*
X1146836Y1061497D01*
X1006003Y1051500D02*
X1011001D01*
Y1053999D01*
X1010168Y1054832D01*
X1006836D01*
X1006003Y1053999D01*
Y1051500D01*
X1011001Y1059831D02*
Y1056498D01*
X1007669Y1059831D01*
X1006836D01*
X1006003Y1058998D01*
Y1057331D01*
X1006836Y1056498D01*
Y1061497D02*
X1006003Y1062330D01*
Y1063996D01*
X1006836Y1064829D01*
X1007669D01*
X1008502Y1063996D01*
Y1063163D01*
Y1063996D01*
X1009335Y1064829D01*
X1010168D01*
X1011001Y1063996D01*
Y1062330D01*
X1010168Y1061497D01*
X867002Y1051500D02*
X872000D01*
Y1053999D01*
X871167Y1054832D01*
X867835D01*
X867002Y1053999D01*
Y1051500D01*
X872000Y1059831D02*
Y1056498D01*
X868668Y1059831D01*
X867835D01*
X867002Y1058998D01*
Y1057331D01*
X867835Y1056498D01*
X872000Y1063996D02*
X867002D01*
X869501Y1061497D01*
Y1064829D01*
X727002Y1051500D02*
X732000D01*
Y1053999D01*
X731167Y1054832D01*
X727835D01*
X727002Y1053999D01*
Y1051500D01*
X732000Y1059831D02*
Y1056498D01*
X728668Y1059831D01*
X727835D01*
X727002Y1058998D01*
Y1057331D01*
X727835Y1056498D01*
X727002Y1064829D02*
Y1061497D01*
X729501D01*
X728668Y1063163D01*
Y1063996D01*
X729501Y1064829D01*
X731167D01*
X732000Y1063996D01*
Y1062330D01*
X731167Y1061497D01*
X586252Y1051500D02*
X591250D01*
Y1053999D01*
X590417Y1054832D01*
X587085D01*
X586252Y1053999D01*
Y1051500D01*
X591250Y1059831D02*
Y1056498D01*
X587918Y1059831D01*
X587085D01*
X586252Y1058998D01*
Y1057331D01*
X587085Y1056498D01*
X586252Y1064829D02*
X587085Y1063163D01*
X588751Y1061497D01*
X590417D01*
X591250Y1062330D01*
Y1063996D01*
X590417Y1064829D01*
X589584D01*
X588751Y1063996D01*
Y1061497D01*
X446003Y1051500D02*
X451001D01*
Y1053999D01*
X450168Y1054832D01*
X446836D01*
X446003Y1053999D01*
Y1051500D01*
X451001Y1059831D02*
Y1056498D01*
X447669Y1059831D01*
X446836D01*
X446003Y1058998D01*
Y1057331D01*
X446836Y1056498D01*
X446003Y1061497D02*
Y1064829D01*
X446836D01*
X450168Y1061497D01*
X451001D01*
X306003Y1051500D02*
X311001D01*
Y1053999D01*
X310168Y1054832D01*
X306836D01*
X306003Y1053999D01*
Y1051500D01*
X311001Y1059831D02*
Y1056498D01*
X307669Y1059831D01*
X306836D01*
X306003Y1058998D01*
Y1057331D01*
X306836Y1056498D01*
Y1061497D02*
X306003Y1062330D01*
Y1063996D01*
X306836Y1064829D01*
X307669D01*
X308502Y1063996D01*
X309335Y1064829D01*
X310168D01*
X311001Y1063996D01*
Y1062330D01*
X310168Y1061497D01*
X309335D01*
X308502Y1062330D01*
X307669Y1061497D01*
X306836D01*
X308502Y1062330D02*
Y1063996D01*
X166003Y1051500D02*
X171001D01*
Y1053999D01*
X170168Y1054832D01*
X166836D01*
X166003Y1053999D01*
Y1051500D01*
X171001Y1059831D02*
Y1056498D01*
X167669Y1059831D01*
X166836D01*
X166003Y1058998D01*
Y1057331D01*
X166836Y1056498D01*
X170168Y1061497D02*
X171001Y1062330D01*
Y1063996D01*
X170168Y1064829D01*
X166836D01*
X166003Y1063996D01*
Y1062330D01*
X166836Y1061497D01*
X167669D01*
X168502Y1062330D01*
Y1064829D01*
X26003Y1051500D02*
X31001D01*
Y1053999D01*
X30168Y1054832D01*
X26836D01*
X26003Y1053999D01*
Y1051500D01*
X26836Y1056498D02*
X26003Y1057331D01*
Y1058998D01*
X26836Y1059831D01*
X27669D01*
X28502Y1058998D01*
Y1058165D01*
Y1058998D01*
X29335Y1059831D01*
X30168D01*
X31001Y1058998D01*
Y1057331D01*
X30168Y1056498D01*
X26836Y1061497D02*
X26003Y1062330D01*
Y1063996D01*
X26836Y1064829D01*
X30168D01*
X31001Y1063996D01*
Y1062330D01*
X30168Y1061497D01*
X26836D01*
X1292998Y535000D02*
X1288000D01*
Y532501D01*
X1288833Y531668D01*
X1292165D01*
X1292998Y532501D01*
Y535000D01*
X1292165Y530002D02*
X1292998Y529169D01*
Y527503D01*
X1292165Y526669D01*
X1291332D01*
X1290499Y527503D01*
Y528335D01*
Y527503D01*
X1289666Y526669D01*
X1288833D01*
X1288000Y527503D01*
Y529169D01*
X1288833Y530002D01*
X1288000Y525003D02*
Y523337D01*
Y524170D01*
X1292998D01*
X1292165Y525003D01*
X1155498Y535000D02*
X1150500D01*
Y532501D01*
X1151333Y531668D01*
X1154665D01*
X1155498Y532501D01*
Y535000D01*
X1154665Y530002D02*
X1155498Y529169D01*
Y527503D01*
X1154665Y526669D01*
X1153832D01*
X1152999Y527503D01*
Y528335D01*
Y527503D01*
X1152166Y526669D01*
X1151333D01*
X1150500Y527503D01*
Y529169D01*
X1151333Y530002D01*
X1150500Y521671D02*
Y525003D01*
X1153832Y521671D01*
X1154665D01*
X1155498Y522504D01*
Y524170D01*
X1154665Y525003D01*
X732998Y534990D02*
X728000D01*
Y532491D01*
X728833Y531658D01*
X732165D01*
X732998Y532491D01*
Y534990D01*
X732165Y529992D02*
X732998Y529159D01*
Y527492D01*
X732165Y526659D01*
X731332D01*
X730499Y527492D01*
Y528326D01*
Y527492D01*
X729666Y526659D01*
X728833D01*
X728000Y527492D01*
Y529159D01*
X728833Y529992D01*
X732998Y521661D02*
Y524993D01*
X730499D01*
X731332Y523327D01*
Y522494D01*
X730499Y521661D01*
X728833D01*
X728000Y522494D01*
Y524160D01*
X728833Y524993D01*
X587998Y534990D02*
X583000D01*
Y532491D01*
X583833Y531658D01*
X587165D01*
X587998Y532491D01*
Y534990D01*
X587165Y529992D02*
X587998Y529159D01*
Y527492D01*
X587165Y526659D01*
X586332D01*
X585499Y527492D01*
Y528326D01*
Y527492D01*
X584666Y526659D01*
X583833D01*
X583000Y527492D01*
Y529159D01*
X583833Y529992D01*
X587165Y524993D02*
X587998Y524160D01*
Y522494D01*
X587165Y521661D01*
X583833D01*
X583000Y522494D01*
Y524160D01*
X583833Y524993D01*
X587165D01*
X1012998Y535000D02*
X1008000D01*
Y532501D01*
X1008833Y531668D01*
X1012165D01*
X1012998Y532501D01*
Y535000D01*
X1012165Y530002D02*
X1012998Y529169D01*
Y527503D01*
X1012165Y526669D01*
X1011332D01*
X1010499Y527503D01*
Y528335D01*
Y527503D01*
X1009666Y526669D01*
X1008833D01*
X1008000Y527503D01*
Y529169D01*
X1008833Y530002D01*
X1012165Y525003D02*
X1012998Y524170D01*
Y522504D01*
X1012165Y521671D01*
X1011332D01*
X1010499Y522504D01*
Y523337D01*
Y522504D01*
X1009666Y521671D01*
X1008833D01*
X1008000Y522504D01*
Y524170D01*
X1008833Y525003D01*
X870498Y534990D02*
X865500D01*
Y532491D01*
X866333Y531658D01*
X869665D01*
X870498Y532491D01*
Y534990D01*
X869665Y529992D02*
X870498Y529159D01*
Y527492D01*
X869665Y526659D01*
X868832D01*
X867999Y527492D01*
Y528326D01*
Y527492D01*
X867166Y526659D01*
X866333D01*
X865500Y527492D01*
Y529159D01*
X866333Y529992D01*
X865500Y522494D02*
X870498D01*
X867999Y524993D01*
Y521661D01*
X450498Y534990D02*
X445500D01*
Y532491D01*
X446333Y531658D01*
X449665D01*
X450498Y532491D01*
Y534990D01*
X449665Y529992D02*
X450498Y529159D01*
Y527492D01*
X449665Y526659D01*
X448832D01*
X447999Y527492D01*
Y528326D01*
Y527492D01*
X447166Y526659D01*
X446333D01*
X445500Y527492D01*
Y529159D01*
X446333Y529992D01*
X450498Y524993D02*
Y521661D01*
X449665D01*
X446333Y524993D01*
X445500D01*
X310498Y534990D02*
X305500D01*
Y532491D01*
X306333Y531658D01*
X309665D01*
X310498Y532491D01*
Y534990D01*
X309665Y529992D02*
X310498Y529159D01*
Y527492D01*
X309665Y526659D01*
X308832D01*
X307999Y527492D01*
Y528326D01*
Y527492D01*
X307166Y526659D01*
X306333D01*
X305500Y527492D01*
Y529159D01*
X306333Y529992D01*
X309665Y524993D02*
X310498Y524160D01*
Y522494D01*
X309665Y521661D01*
X308832D01*
X307999Y522494D01*
X307166Y521661D01*
X306333D01*
X305500Y522494D01*
Y524160D01*
X306333Y524993D01*
X307166D01*
X307999Y524160D01*
X308832Y524993D01*
X309665D01*
X307999Y524160D02*
Y522494D01*
X170498Y534990D02*
X165500D01*
Y532491D01*
X166333Y531658D01*
X169665D01*
X170498Y532491D01*
Y534990D01*
X169665Y529992D02*
X170498Y529159D01*
Y527492D01*
X169665Y526659D01*
X168832D01*
X167999Y527492D01*
Y528326D01*
Y527492D01*
X167166Y526659D01*
X166333D01*
X165500Y527492D01*
Y529159D01*
X166333Y529992D01*
Y524993D02*
X165500Y524160D01*
Y522494D01*
X166333Y521661D01*
X169665D01*
X170498Y522494D01*
Y524160D01*
X169665Y524993D01*
X168832D01*
X167999Y524160D01*
Y521661D01*
X30498Y535000D02*
X25500D01*
Y532501D01*
X26333Y531668D01*
X29665D01*
X30498Y532501D01*
Y535000D01*
X25500Y527503D02*
X30498D01*
X27999Y530002D01*
Y526669D01*
X29665Y525003D02*
X30498Y524170D01*
Y522504D01*
X29665Y521671D01*
X26333D01*
X25500Y522504D01*
Y524170D01*
X26333Y525003D01*
X29665D01*
X1369997Y1087500D02*
X1364998D01*
Y1085001D01*
X1365832Y1084168D01*
X1369164D01*
X1369997Y1085001D01*
Y1087500D01*
X1364998Y1082502D02*
Y1080835D01*
Y1081669D01*
X1369997D01*
X1369164Y1082502D01*
X1229997Y1087500D02*
X1224998D01*
Y1085001D01*
X1225832Y1084168D01*
X1229164D01*
X1229997Y1085001D01*
Y1087500D01*
X1224998Y1079169D02*
Y1082502D01*
X1228331Y1079169D01*
X1229164D01*
X1229997Y1080002D01*
Y1081669D01*
X1229164Y1082502D01*
X1089997Y1087500D02*
X1084998D01*
Y1085001D01*
X1085832Y1084168D01*
X1089164D01*
X1089997Y1085001D01*
Y1087500D01*
X1089164Y1082502D02*
X1089997Y1081669D01*
Y1080002D01*
X1089164Y1079169D01*
X1088331D01*
X1087498Y1080002D01*
Y1080835D01*
Y1080002D01*
X1086665Y1079169D01*
X1085832D01*
X1084998Y1080002D01*
Y1081669D01*
X1085832Y1082502D01*
X949997Y1087500D02*
X944998D01*
Y1085001D01*
X945832Y1084168D01*
X949164D01*
X949997Y1085001D01*
Y1087500D01*
X944998Y1080002D02*
X949997D01*
X947498Y1082502D01*
Y1079169D01*
X809997Y1087500D02*
X804998D01*
Y1085001D01*
X805832Y1084168D01*
X809164D01*
X809997Y1085001D01*
Y1087500D01*
Y1079169D02*
Y1082502D01*
X807498D01*
X808331Y1080835D01*
Y1080002D01*
X807498Y1079169D01*
X805832D01*
X804998Y1080002D01*
Y1081669D01*
X805832Y1082502D01*
X669997Y1087500D02*
X664998D01*
Y1085001D01*
X665832Y1084168D01*
X669164D01*
X669997Y1085001D01*
Y1087500D01*
Y1079169D02*
X669164Y1080835D01*
X667498Y1082502D01*
X665832D01*
X664998Y1081669D01*
Y1080002D01*
X665832Y1079169D01*
X666665D01*
X667498Y1080002D01*
Y1082502D01*
X529997Y1087500D02*
X524999D01*
Y1085001D01*
X525832Y1084168D01*
X529164D01*
X529997Y1085001D01*
Y1087500D01*
Y1082502D02*
Y1079169D01*
X529164D01*
X525832Y1082502D01*
X524999D01*
X389997Y1087500D02*
X384999D01*
Y1085001D01*
X385832Y1084168D01*
X389164D01*
X389997Y1085001D01*
Y1087500D01*
X389164Y1082502D02*
X389997Y1081669D01*
Y1080002D01*
X389164Y1079169D01*
X388331D01*
X387498Y1080002D01*
X386665Y1079169D01*
X385832D01*
X384999Y1080002D01*
Y1081669D01*
X385832Y1082502D01*
X386665D01*
X387498Y1081669D01*
X388331Y1082502D01*
X389164D01*
X387498Y1081669D02*
Y1080002D01*
X249997Y1087500D02*
X244998D01*
Y1085001D01*
X245832Y1084168D01*
X249164D01*
X249997Y1085001D01*
Y1087500D01*
X245832Y1082502D02*
X244998Y1081669D01*
Y1080002D01*
X245832Y1079169D01*
X249164D01*
X249997Y1080002D01*
Y1081669D01*
X249164Y1082502D01*
X248331D01*
X247498Y1081669D01*
Y1079169D01*
X109997Y1087500D02*
X104999D01*
Y1085001D01*
X105832Y1084168D01*
X109164D01*
X109997Y1085001D01*
Y1087500D01*
X104999Y1082502D02*
Y1080835D01*
Y1081669D01*
X109997D01*
X109164Y1082502D01*
Y1078336D02*
X109997Y1077503D01*
Y1075837D01*
X109164Y1075004D01*
X105832D01*
X104999Y1075837D01*
Y1077503D01*
X105832Y1078336D01*
X109164D01*
X1364502Y499000D02*
X1369500D01*
Y501499D01*
X1368667Y502332D01*
X1365335D01*
X1364502Y501499D01*
Y499000D01*
X1369500Y503998D02*
Y505664D01*
Y504832D01*
X1364502D01*
X1365335Y503998D01*
X1369500Y508164D02*
Y509830D01*
Y508997D01*
X1364502D01*
X1365335Y508164D01*
X1227002Y499000D02*
X1232000D01*
Y501499D01*
X1231167Y502332D01*
X1227835D01*
X1227002Y501499D01*
Y499000D01*
X1232000Y503998D02*
Y505664D01*
Y504832D01*
X1227002D01*
X1227835Y503998D01*
X1232000Y511496D02*
Y508164D01*
X1228668Y511496D01*
X1227835D01*
X1227002Y510663D01*
Y508997D01*
X1227835Y508164D01*
X804502Y498990D02*
X809500D01*
Y501489D01*
X808667Y502322D01*
X805335D01*
X804502Y501489D01*
Y498990D01*
X809500Y503988D02*
Y505654D01*
Y504821D01*
X804502D01*
X805335Y503988D01*
X804502Y511486D02*
Y508154D01*
X807001D01*
X806168Y509820D01*
Y510653D01*
X807001Y511486D01*
X808667D01*
X809500Y510653D01*
Y508987D01*
X808667Y508154D01*
X659502Y498990D02*
X664500D01*
Y501489D01*
X663667Y502322D01*
X660335D01*
X659502Y501489D01*
Y498990D01*
X664500Y503988D02*
Y505654D01*
Y504821D01*
X659502D01*
X660335Y503988D01*
X659502Y511486D02*
X660335Y509820D01*
X662001Y508154D01*
X663667D01*
X664500Y508987D01*
Y510653D01*
X663667Y511486D01*
X662834D01*
X662001Y510653D01*
Y508154D01*
X1087002Y499000D02*
X1092000D01*
Y501499D01*
X1091167Y502332D01*
X1087835D01*
X1087002Y501499D01*
Y499000D01*
X1092000Y503998D02*
Y505664D01*
Y504832D01*
X1087002D01*
X1087835Y503998D01*
Y508164D02*
X1087002Y508997D01*
Y510663D01*
X1087835Y511496D01*
X1088668D01*
X1089501Y510663D01*
Y509830D01*
Y510663D01*
X1090334Y511496D01*
X1091167D01*
X1092000Y510663D01*
Y508997D01*
X1091167Y508164D01*
X944502Y499000D02*
X949500D01*
Y501499D01*
X948667Y502332D01*
X945335D01*
X944502Y501499D01*
Y499000D01*
X949500Y503998D02*
Y505664D01*
Y504832D01*
X944502D01*
X945335Y503998D01*
X949500Y510663D02*
X944502D01*
X947001Y508164D01*
Y511496D01*
X522002Y498990D02*
X527000D01*
Y501489D01*
X526167Y502322D01*
X522835D01*
X522002Y501489D01*
Y498990D01*
X527000Y503988D02*
Y505654D01*
Y504821D01*
X522002D01*
X522835Y503988D01*
X522002Y508154D02*
Y511486D01*
X522835D01*
X526167Y508154D01*
X527000D01*
X382002Y498990D02*
X387000D01*
Y501489D01*
X386167Y502322D01*
X382835D01*
X382002Y501489D01*
Y498990D01*
X387000Y503988D02*
Y505654D01*
Y504821D01*
X382002D01*
X382835Y503988D01*
Y508154D02*
X382002Y508987D01*
Y510653D01*
X382835Y511486D01*
X383668D01*
X384501Y510653D01*
X385334Y511486D01*
X386167D01*
X387000Y510653D01*
Y508987D01*
X386167Y508154D01*
X385334D01*
X384501Y508987D01*
X383668Y508154D01*
X382835D01*
X384501Y508987D02*
Y510653D01*
X242002Y498990D02*
X247000D01*
Y501489D01*
X246167Y502322D01*
X242835D01*
X242002Y501489D01*
Y498990D01*
X247000Y503988D02*
Y505654D01*
Y504821D01*
X242002D01*
X242835Y503988D01*
X246167Y508154D02*
X247000Y508987D01*
Y510653D01*
X246167Y511486D01*
X242835D01*
X242002Y510653D01*
Y508987D01*
X242835Y508154D01*
X243668D01*
X244501Y508987D01*
Y511486D01*
X104502Y498990D02*
X109500D01*
Y501489D01*
X108667Y502322D01*
X105335D01*
X104502Y501489D01*
Y498990D01*
X109500Y507321D02*
Y503988D01*
X106168Y507321D01*
X105335D01*
X104502Y506488D01*
Y504821D01*
X105335Y503988D01*
Y508987D02*
X104502Y509820D01*
Y511486D01*
X105335Y512319D01*
X108667D01*
X109500Y511486D01*
Y509820D01*
X108667Y508987D01*
X105335D01*
X978001Y844650D02*
X982167D01*
X983000Y845483D01*
Y847149D01*
X982167Y847982D01*
X978001D01*
X983000Y849648D02*
Y851314D01*
Y850481D01*
X978001D01*
X978835Y849648D01*
X819002Y844650D02*
X823167D01*
X824000Y845483D01*
Y847149D01*
X823167Y847982D01*
X819002D01*
X824000Y852981D02*
Y849648D01*
X820668Y852981D01*
X819835D01*
X819002Y852148D01*
Y850481D01*
X819835Y849648D01*
X683002Y844650D02*
X687167D01*
X688000Y845483D01*
Y847149D01*
X687167Y847982D01*
X683002D01*
X683835Y849648D02*
X683002Y850481D01*
Y852148D01*
X683835Y852981D01*
X684668D01*
X685501Y852148D01*
Y851314D01*
Y852148D01*
X686334Y852981D01*
X687167D01*
X688000Y852148D01*
Y850481D01*
X687167Y849648D01*
X555502Y844650D02*
X559667D01*
X560500Y845483D01*
Y847149D01*
X559667Y847982D01*
X555502D01*
X560500Y852148D02*
X555502D01*
X558001Y849648D01*
Y852981D01*
X395502Y844650D02*
X399667D01*
X400500Y845483D01*
Y847149D01*
X399667Y847982D01*
X395502D01*
Y852981D02*
Y849648D01*
X398001D01*
X397168Y851314D01*
Y852148D01*
X398001Y852981D01*
X399667D01*
X400500Y852148D01*
Y850481D01*
X399667Y849648D01*
X978001Y727650D02*
X982167D01*
X983000Y728483D01*
Y730149D01*
X982167Y730982D01*
X978001D01*
Y735981D02*
X978835Y734314D01*
X980501Y732648D01*
X982167D01*
X983000Y733482D01*
Y735148D01*
X982167Y735981D01*
X981334D01*
X980501Y735148D01*
Y732648D01*
X683002Y727650D02*
X687167D01*
X688000Y728483D01*
Y730149D01*
X687167Y730982D01*
X683002D01*
X683835Y732648D02*
X683002Y733482D01*
Y735148D01*
X683835Y735981D01*
X684668D01*
X685501Y735148D01*
X686334Y735981D01*
X687167D01*
X688000Y735148D01*
Y733482D01*
X687167Y732648D01*
X686334D01*
X685501Y733482D01*
X684668Y732648D01*
X683835D01*
X685501Y733482D02*
Y735148D01*
X819002Y727650D02*
X823167D01*
X824000Y728483D01*
Y730149D01*
X823167Y730982D01*
X819002D01*
Y732648D02*
Y735981D01*
X819835D01*
X823167Y732648D01*
X824000D01*
X555502Y727650D02*
X559667D01*
X560500Y728483D01*
Y730149D01*
X559667Y730982D01*
X555502D01*
X559667Y732648D02*
X560500Y733482D01*
Y735148D01*
X559667Y735981D01*
X556335D01*
X555502Y735148D01*
Y733482D01*
X556335Y732648D01*
X557168D01*
X558001Y733482D01*
Y735981D01*
X395502Y727650D02*
X399667D01*
X400500Y728483D01*
Y730149D01*
X399667Y730982D01*
X395502D01*
X400500Y732648D02*
Y734314D01*
Y733482D01*
X395502D01*
X396335Y732648D01*
Y736814D02*
X395502Y737647D01*
Y739313D01*
X396335Y740146D01*
X399667D01*
X400500Y739313D01*
Y737647D01*
X399667Y736814D01*
X396335D01*
M02*
